<?xml version="1.0" encoding="utf-8"?>
<!-- Generator: Adobe Illustrator 25.4.1, SVG Export Plug-In . SVG Version: 6.00 Build 0)  -->
<svg version="1.1" xmlns="http://www.w3.org/2000/svg" xmlns:xlink="http://www.w3.org/1999/xlink" x="0px" y="0px"
	 viewBox="0 0 800 800" style="enable-background:new 0 0 800 800;" xml:space="preserve">
<style type="text/css">
	.st0{fill:url(#SVGID_1_);}
	.st1{fill:url(#SVGID_00000017503957591311351170000004976947533696166021_);}
	.st2{fill:#FEC1C7;}
	.st3{fill:url(#SVGID_00000150812675295239629130000014530466983319645829_);}
	.st4{fill:#271F44;}
	.st5{fill:url(#SVGID_00000119833180223264880250000013876268087723401380_);}
	.st6{fill:url(#SVGID_00000140009594212615737170000015480724326250203808_);}
	.st7{fill:url(#SVGID_00000159434425095272268010000001956461934453167493_);}
	.st8{fill:url(#SVGID_00000104700604623965438550000003384221380406610310_);}
	.st9{fill:url(#SVGID_00000157291759288906581350000001556998989440614530_);}
	.st10{fill:#27872C;}
	.st11{fill:url(#SVGID_00000075841591945896124820000013984387749222520986_);}
	.st12{fill:#EDA9B3;}
	.st13{fill:#F8B143;}
	.st14{fill:#E4AEB5;}
	.st15{fill:url(#SVGID_00000134209757282812199580000000854286647262984327_);}
	.st16{fill:url(#SVGID_00000040569810245166267760000007698057627569936568_);}
	.st17{fill:#38B649;}
	.st18{fill:url(#SVGID_00000070091263206421957250000007998777312621238455_);}
	.st19{fill:#EA9C36;}
	.st20{fill:#FFFFFF;}
	.st21{fill:url(#SVGID_00000098941579319944736110000003183078670139286942_);}
	.st22{fill:url(#SVGID_00000168080600474501450630000014066685384729403311_);}
	.st23{fill:url(#SVGID_00000106133442904901767810000008149465579928595638_);}
	.st24{fill:url(#SVGID_00000020360040085662542100000007866489489470517949_);}
	.st25{fill:#1F7221;}
	.st26{fill:url(#SVGID_00000065063602316693749550000014441806786920765092_);}
</style>
<g id="Layer_1">
</g>
<g id="Layer_6">
</g>
<g id="Layer_5">
</g>
<g id="Layer_4">
</g>
<g id="Layer_2">
	<g>
		<linearGradient id="SVGID_1_" gradientUnits="userSpaceOnUse" x1="400" y1="756.0732" x2="400" y2="126.0439">
			<stop  offset="0" style="stop-color:#DBE8ED"/>
			<stop  offset="8.407295e-03" style="stop-color:#DCE9ED"/>
			<stop  offset="0.1995" style="stop-color:#E8F1F5"/>
			<stop  offset="0.4516" style="stop-color:#F0F7FA"/>
			<stop  offset="1" style="stop-color:#F2F8FB"/>
		</linearGradient>
		<path class="st0" d="M764.66,586.49c-3.4,6.41-7.05,12.67-10.95,18.78c-16.99,26.64-38.68,50.45-64.09,70.84
			c-42.68,34.25-95.88,58.86-154.99,71.12c-1.54,0.32-3.07,0.62-4.62,0.92c-35.73,7.01-73.57,9.52-112.5,6.93
			c-12.57-0.83-25.26-2.2-38.03-4.11c-12.83-1.92-25.74-4.4-38.7-7.46c-1.13-0.27-2.26-0.54-3.39-0.81c-1.5-0.36-3-0.72-4.5-1.12
			c-0.73-0.18-1.48-0.37-2.21-0.56c-0.64-0.17-1.4-0.37-2.21-0.58c-0.34-0.09-0.69-0.18-1.05-0.28c-0.73-0.19-1.47-0.4-2.2-0.59
			c-0.62-0.17-1.24-0.33-1.8-0.49c-0.27-0.06-0.54-0.14-0.8-0.22c-0.28-0.08-0.55-0.15-0.79-0.22c-1.24-0.35-2.07-0.57-2.07-0.57
			c-2.93-0.82-5.86-1.67-8.75-2.54c-31.5-9.42-60.52-21.26-87.1-35.09c-9.51-4.95-18.7-10.14-27.59-15.57
			c-1.38-0.84-2.76-1.69-4.11-2.55c-24.88-15.57-47.27-32.99-67.15-51.78c-5.04-4.77-9.93-9.61-14.65-14.55
			c-6.07-6.33-11.87-12.8-17.41-19.39C-23.65,458.04-23.76,267.93,87.34,177.47c18.06-14.71,39.05-26.78,62.97-35.57
			c17.28-6.35,36.07-10.99,56.38-13.67c153.66-20.28,157.46,106.52,255.2,136.68c103.18,31.84,331.02-13.35,333.35,194.13
			C795.76,505.58,784.75,548.54,764.66,586.49z"/>
		<g>
			<path class="st2" d="M495.12,281.93l25.64,5.17c0.99-5.52,1.65-9.08,1.79-9.7c0.71-3.24,41.11-21.33,37.33-25.33
				c-3.79-3.99-21.41,5.02-22.95,2.8c-3.55-5.12,9.51-54.18,5.42-53.86c-7.65,0.59-9.54,31.05-13.17,30.68
				c-3.63-0.37,5.01-31.6-0.81-34.31c-5.83-2.71-5.33,30.32-8.14,31.37c-2.82,1.06-4.78-31.04-10.69-28.33
				c-3.22,1.47,2.45,28.5-1.68,27.98c-4.14-0.51-11.8-20.57-15.33-18.53c-3.53,2.04,9.53,19.55,8.65,30.69
				c-0.87,11.14,3.66,16.1-3.09,33.38C497.41,275.72,496.38,278.44,495.12,281.93z"/>
		</g>
		
			<linearGradient id="SVGID_00000032620816618547439550000010864989821077983923_" gradientUnits="userSpaceOnUse" x1="246.2187" y1="738.6345" x2="246.2187" y2="222.3473">
			<stop  offset="0" style="stop-color:#DBE8ED"/>
			<stop  offset="1" style="stop-color:#BFCFD3"/>
		</linearGradient>
		<path style="fill:url(#SVGID_00000032620816618547439550000010864989821077983923_);" d="M312.38,457.16l40-79.11l-32.96-110.44
			c0,0-0.73-11.17-1.26-17.42c-0.61-7.18,7.74-18.52,5.46-19.82c-2.28-1.3-7.14,11.66-9.81,12c-2.66,0.35,0.89-17.1-1.19-18.04
			c-3.82-1.73-4.96,18.98-6.78,18.31c-1.81-0.67-1.62-21.97-5.37-20.19c-3.74,1.77,1.95,21.88-0.39,22.13
			c-2.34,0.26-3.67-19.38-8.61-19.73c-2.63-0.19,5.97,31.4,3.7,34.71c-0.99,1.44-12.38-4.3-14.81-1.72
			c-2.03,2.18,16.08,10.65,22.2,14.54l8.21,94.47l-14.73,34.37l-32.74,4.36v-5.87c5.33-4.64,9.42-11.5,11.45-19.56
			c1.2-2.49,9.9-20.89,8.81-28.51c-1.17-8.17-5.07-7.78-9.73-13.23c-4.67-5.44-9.72-24.13-25.68-19.46
			c-15.96,4.67-22.48,15.18-28.7,16.35c-6.22,1.17-10.44,17.55-1.35,33.19c0,14.97,6.77,27.88,16.57,33.92v6.97l-10.32,1.37
			l-50.54-30.91l0.75-66.74c0.08-1.02,0.13-1.66,0.16-1.85c0.22-2.02,23.66-15.6,21.11-17.79c-2.56-2.18-12.71,4.42-13.79,3.17
			c-2.49-2.89,2.33-33.58-0.13-33.12c-4.62,0.84-3.83,19.5-6.06,19.51c-2.23,0.01,1.04-19.55-2.68-20.83
			c-3.72-1.28-1.31,18.79-2.95,19.61c-1.65,0.82-4.89-18.59-8.31-16.56c-1.86,1.1,3.31,17.19,0.76,17.14
			c-2.55-0.05-8.49-11.77-10.51-10.3s7.04,11.29,7.22,18.13c0.18,6.83-0.39,21.13-0.39,21.13l-18.92,79.77l60.5,73.22l-5.78,54.13
			l-2.6,163.87c1.36,0.85,2.74,1.7,4.11,2.55c8.89,5.43,18.09,10.63,27.59,15.57c6.65,3.46,13.44,6.79,20.4,9.99
			c2.71-9.61,11.45-68.18,11.45-68.18s17.03,65.28,21.53,81.93c10.91,4.1,22.16,7.88,33.73,11.35c2.89,0.87,5.82,1.71,8.75,2.54
			c0,0,0.83,0.23,2.07,0.57l-4.31-125.56L312.38,457.16z"/>
		<path class="st4" d="M226.04,700.77l-2.15-0.34c-44.75-23.25-82.57-52.13-113.51-84.45v-7.13h85.29L226.04,700.77z"/>
		
			<linearGradient id="SVGID_00000142164935348847992840000010868779200118372792_" gradientUnits="userSpaceOnUse" x1="35.8691" y1="596.0655" x2="154.1575" y2="520.2124">
			<stop  offset="0" style="stop-color:#BFCFD3"/>
			<stop  offset="0.224" style="stop-color:#C5D3D7"/>
			<stop  offset="0.5189" style="stop-color:#D5E0E2"/>
			<stop  offset="0.852" style="stop-color:#F1F4F5"/>
			<stop  offset="1" style="stop-color:#FFFFFF"/>
		</linearGradient>
		<path style="fill:url(#SVGID_00000142164935348847992840000010868779200118372792_);" d="M206.73,595.96l-21.64-43.27l1.16-44.63
			c0.21-8.13-2.25-16.1-6.99-22.69L171.08,474l-22.76-38.8l-45.22,3.57l-23.11,8.35c0,0-0.72,0.38-1.74,0.92
			c1.81,0.73,15.11,6.55,16.22,19.63c1.19,14.04-14.78,32.19-14.78,32.19l26.12,73.19L92.98,596.6
			c5.53,6.59,11.34,13.05,17.41,19.39c4.72,4.94,9.6,9.78,14.65,14.55l58.44-11.24c6.86-1.32,13.16-4.66,18.1-9.6l3.49-3.49
			C207.77,603.51,208.44,599.38,206.73,595.96z"/>
		
			<linearGradient id="SVGID_00000183217453556222356760000002383737581800044981_" gradientUnits="userSpaceOnUse" x1="525.9818" y1="677.4194" x2="689.6151" y2="677.4194">
			<stop  offset="0" style="stop-color:#38B649"/>
			<stop  offset="0.5934" style="stop-color:#2E9C39"/>
			<stop  offset="1" style="stop-color:#27872C"/>
		</linearGradient>
		<path style="fill:url(#SVGID_00000183217453556222356760000002383737581800044981_);" d="M689.62,606.69v69.42
			c-42.68,34.25-95.88,58.86-154.99,71.12c-1.54,0.32-3.07,0.62-4.62,0.92c-1.4-14.52-4.21-45.66-4.01-58.1
			c0.32-20.95,8.63-83.36,8.63-83.36H689.62z"/>
		
			<linearGradient id="SVGID_00000067199909184008908520000001782131151946462887_" gradientUnits="userSpaceOnUse" x1="310.6282" y1="187.3724" x2="341.8786" y2="163.5208" gradientTransform="matrix(0.7247 -0.6891 0.6891 0.7247 -161.9734 573.5073)">
			<stop  offset="0" style="stop-color:#BFCFD3"/>
			<stop  offset="0.2772" style="stop-color:#CCD9DC"/>
			<stop  offset="0.7911" style="stop-color:#EFF3F4"/>
			<stop  offset="1" style="stop-color:#FFFFFF"/>
		</linearGradient>
		<path style="fill:url(#SVGID_00000067199909184008908520000001782131151946462887_);" d="M243.04,466.71l-75.32,18.59
			l-24.46-45.13l89.6-8.88c8.24-1.29,21.36,0.38,24.18,15.28C258.59,454.73,251.97,463.45,243.04,466.71z"/>
		
			<linearGradient id="SVGID_00000032607913181953451200000003013932185554770335_" gradientUnits="userSpaceOnUse" x1="265.5087" y1="572.6763" x2="381.4489" y2="572.6763">
			<stop  offset="0" style="stop-color:#38B649"/>
			<stop  offset="1" style="stop-color:#27872C"/>
		</linearGradient>
		<path style="fill:url(#SVGID_00000032607913181953451200000003013932185554770335_);" d="M337.62,468.89
			c-10.68,11.9-3.06,15.87-10.08,27.15c-7.02,11.29-25.02,18-26.85,27.78c-1.83,9.76-5.49,11.59-15.25,16.78
			c-9.77,5.18-24.22,27.27-18.72,49.85c1.02,4.2,3.7,7.77,5.13,10.38c6.29,11.46,17.72,8.53,22.44-1.65
			c5.8-12.52,21.06-38.75,28.69-45.16c3.59-3.02,7.17-5.35,9.97-6.98c1.09,6.81-22.76,83.34-23.59,135.87l69.55,6.57l2.56-233.61
			C381.45,455.87,345.52,460.07,337.62,468.89z"/>
		
			<linearGradient id="SVGID_00000085231975237466090240000017729892525307076270_" gradientUnits="userSpaceOnUse" x1="68.7727" y1="608.8574" x2="162.3049" y2="503.9839">
			<stop  offset="0" style="stop-color:#BFCFD3"/>
			<stop  offset="0.224" style="stop-color:#C5D3D7"/>
			<stop  offset="0.5189" style="stop-color:#D5E0E2"/>
			<stop  offset="0.852" style="stop-color:#F1F4F5"/>
			<stop  offset="1" style="stop-color:#FFFFFF"/>
		</linearGradient>
		<path style="fill:url(#SVGID_00000085231975237466090240000017729892525307076270_);" d="M205.07,606.2l-3.5,3.5
			c-4.94,4.94-11.24,8.28-18.1,9.59l-58.44,11.24c-5.04-4.77-9.93-9.61-14.65-14.55c-6.07-6.33-11.87-12.8-17.41-19.39l12.83-23.54
			L90.9,531.28l-4.19-11.76l-6.46-18.12l-0.56-1.55c0,0,3.47-5.35,6.41-12.5c2.43-5.91,4.5-13.03,3.96-19.39
			c-1.12-13.08-10.01-19.2-11.81-19.93c1.01-0.54,1.73-0.92,1.73-0.92l23.11-8.35l45.23-3.57l20.73,35.33l2.03,3.47l5.91,8.2
			l2.28,3.17c3.13,4.36,5.27,9.33,6.3,14.54c0.52,2.67,0.75,5.4,0.68,8.15l-0.12,4.53l-1.04,40.1l21.64,43.27
			C208.44,599.38,207.77,603.51,205.07,606.2z"/>
		<polygon class="st10" points="340.45,525.52 321.63,684.01 374.06,628.63 		"/>
		
			<linearGradient id="SVGID_00000147204173550729560750000001297657115684523953_" gradientUnits="userSpaceOnUse" x1="612.8074" y1="529.88" x2="612.8074" y2="47.8574">
			<stop  offset="0" style="stop-color:#DBE8ED"/>
			<stop  offset="0.4997" style="stop-color:#CFDEE2"/>
			<stop  offset="1" style="stop-color:#BFCFD3"/>
		</linearGradient>
		<path style="fill:url(#SVGID_00000147204173550729560750000001297657115684523953_);" d="M696.57,443.14l49.5-44.75
			c11.36-10.27,15.19-26.48,9.63-40.75L715.91,255.6l-10.48,4.46l-24.07,10.24l-3.75,1.6l26.23,92.84l-53.61,33.19l-82.91,6.38
			l-10.25,0.08l-38.64-23.15l8.46-95.35l-35.51-6.69l-22.89,93.52c-3.1,12.69,0.46,26.08,9.46,35.54l67.64,59.96l-17.69,169.68l0,0
			c49.27,16.29,102.2,17.99,152.41,4.88l21.23-5.54l-5.94-82.53L696.57,443.14z"/>
		<path class="st12" d="M117.97,456.33h-2.16c-6.72,0-12.17-5.45-12.17-12.17v-19.47c0-6.72,5.45-12.17,12.17-12.17h2.16
			c6.72,0,12.17,5.45,12.17,12.17v19.47C130.14,450.88,124.69,456.33,117.97,456.33z"/>
		<path class="st13" d="M441.72,611.06l-5.94,13.34l-56.31,126.56c-12.83-1.92-25.74-4.4-38.7-7.46c-1.13-0.27-2.26-0.54-3.39-0.81
			c-1.5-0.36-3-0.72-4.5-1.12c-0.73-0.18-1.48-0.37-2.21-0.56c-0.92-0.24-2.06-0.55-3.26-0.86c-1.35-0.37-2.77-0.74-4-1.08
			c-0.28-0.08-0.55-0.15-0.8-0.22c-1.67-0.47-2.86-0.79-2.86-0.79c-2.93-0.82-5.86-1.67-8.75-2.54c1.27-11.21,5.61-30.25,7.35-38.7
			c3.96-19.12,18.89-66.48,18.89-66.48l25.98,6.25l71.98-23.42L441.72,611.06z"/>
		<path class="st14" d="M616.98,434.96h-3.14c-10.21,0-18.49-8.28-18.49-18.49v-23.99c0-10.21,8.28-18.49,18.49-18.49h3.14
			c10.21,0,18.49,8.28,18.49,18.49v23.99C635.46,426.69,627.19,434.96,616.98,434.96z"/>
		<path class="st13" d="M417.51,755.08c-12.57-0.83-25.26-2.2-38.03-4.11c-12.83-1.92-25.74-4.4-38.7-7.46l26.98-64.5l-6.3-41.05
			l1.76-1.36l87.4-67.33c0,0-12.91,28.94-15.42,43.91c-0.28,1.62-0.43,3.07-0.43,4.31c0,1.88,0.37,4.23,1.01,6.91
			c3.65,15.33,16.05,41.51,17.45,53.72C454.72,690.93,441.24,727.06,417.51,755.08z"/>
		<path class="st4" d="M459.51,403.25c0,0,10.51,22.19,33.87,36.79c23.36,14.6,38.55,28.17,30.37,47.3
			c-8.78,20.51-27.44,10.18-19.86,33.94c6.15,19.28,18.39,29.89-10.51,47.23c-23.6,14.17-57.23-28.03-57.23-28.03L459.51,403.25z"/>
		<path class="st2" d="M429.04,639.68c0,0-21.03,8.69-45.45,7.98c-31.11-0.9-46.37-16.32-46.34-17.31
			c0.37-14.66,4.21-25.64,4.24-41.12l84.51,14.29L429.04,639.68z"/>
		<path class="st12" d="M342.22,592.94c0,0,22.42,19.1,70.32,22.15l2.21-31.56L342.22,592.94z"/>
		<path class="st10" d="M268.87,583.84c0,8.26,6.76,19.12,12.6,19.12c5.84,0,12.82-7.15,12.82-15.41c0-8.26,2.01-21.03-3.82-21.03
			C284.62,566.52,268.87,575.58,268.87,583.84z"/>
		
			<linearGradient id="SVGID_00000173867900245444390960000011387949685741037737_" gradientUnits="userSpaceOnUse" x1="386.4756" y1="602.4352" x2="386.4756" y2="484.4115">
			<stop  offset="0" style="stop-color:#FFFFFF"/>
			<stop  offset="0.5576" style="stop-color:#E8F0F4"/>
			<stop  offset="1" style="stop-color:#DBE8ED"/>
		</linearGradient>
		<path style="fill:url(#SVGID_00000173867900245444390960000011387949685741037737_);" d="M426.15,596.8c0,0-21.23,6.1-37.58,5.61
			c-25.73-0.77-49.53-10.74-49.53-10.74s1.41-60.75,1.41-66.15c0-10.84,41.66-69.05,41.66-69.05l42.79-5.09l9.01,109.38
			L426.15,596.8z"/>
		<path class="st12" d="M395,482.61L395,482.61c-9.84-1.55-16.55-10.78-15-20.62l6.69-42.4c1.55-9.84,10.78-16.55,20.62-15h0
			c9.84,1.55,16.55,10.78,15,20.62l-6.69,42.4C414.07,477.45,404.84,484.17,395,482.61z"/>
		
			<linearGradient id="SVGID_00000106869495537052828480000015594939935673553813_" gradientUnits="userSpaceOnUse" x1="427.3856" y1="459.422" x2="427.3856" y2="449.0118">
			<stop  offset="0" style="stop-color:#38B649"/>
			<stop  offset="0.3041" style="stop-color:#34AC43"/>
			<stop  offset="0.8145" style="stop-color:#2B9233"/>
			<stop  offset="1" style="stop-color:#27872C"/>
		</linearGradient>
		<path style="fill:url(#SVGID_00000106869495537052828480000015594939935673553813_);" d="M436.9,458.84
			c-7.21,1.15-13.54,0.55-19.03-1.38c1.54-3.23,3.03-6.1,4.37-8.45L436.9,458.84z"/>
		<path class="st2" d="M371.87,375.05c-11.74,0.98-20.8,10.78-20.82,22.56c0,2.79,0.2,5.31,0.73,7.17
			c2.27,7.91,3.95,10.17-0.34,20.3c-4.28,10.13,7.45,6.3,7.45,6.3s-1.07,4.38-0.12,5.05c0.45,0.32,1.34,0.94,1.62,1.71
			c0.3,0.84,0.38,1.94,0.72,2.43c0.65,0.95,1.34,0.72,1.67,2.51c0.33,1.79,0.05,5.86,2.56,7.41c2.46,1.52,14.68,2.87,38.38-16.52
			c26.76-21.89,5.2-62.02,5.2-62.02L371.87,375.05z"/>
		<path class="st4" d="M444.61,457.03c-2.68,0.82-5.24,1.42-7.71,1.81c-5.03,0.8-9.62,0.76-13.8-0.01v-0.01
			c-1.82-0.31-3.55-0.77-5.22-1.36c-0.12-0.04-0.24-0.08-0.35-0.13c-17.68-6.42-26.58-26.64-28.41-46.06
			c-1.21-12.8-32.31-8.3-41.62-14.27c-9.3-5.98-4.22-27.11,21.67-38.39c25.88-11.29,39.62-2.5,48.79,5.67
			C439.5,383.47,461.13,451.97,444.61,457.03z"/>
		<g>
			<path class="st17" d="M467.83,652.94l-52.36,43.6l-1.75,0.71c-23.79-34.28-8.26-88.03-7.56-113.91
				c0.69-25.89-10.5-47.58-10.5-69.96c0-22.39,22.21-55.92,22.21-55.92l14.81,4.85l34.1,21.98c0,0-7.46,51.47-10.96,75.26
				C452.32,583.34,467.83,652.94,467.83,652.94z"/>
			
				<linearGradient id="SVGID_00000096046506300609053170000005759822524916955521_" gradientUnits="userSpaceOnUse" x1="438.072" y1="696.5436" x2="438.072" y2="338.6633">
				<stop  offset="0" style="stop-color:#38B649"/>
				<stop  offset="0.5934" style="stop-color:#2E9C39"/>
				<stop  offset="1" style="stop-color:#27872C"/>
			</linearGradient>
			<path style="fill:url(#SVGID_00000096046506300609053170000005759822524916955521_);" d="M455.82,559.55
				c2.25-15.32,4.94-39.79,10.6-56.4c1.79-4.14,3.41-8.63,4.67-13.37c0.49-1.36,0.56-2.25,0.56-2.25
				c2.19-9.31,2.85-19.47,0.38-29.68c-3.61-14.95-9.68-68.29-9.68-68.29l-17.15-46.47c-1.41-3.99-6.15-5.66-9.74-3.42
				c0,0-20.09,4.1-25.04,7.52c-6.14,4.25-11.3,9.95-8.52,16.88c0.12,0.31,0.26,0.61,0.41,0.91l21.76,44.13l-0.96,49.7
				c-1.82-0.33-3.56-0.78-5.22-1.36c-7.66,16.07-16.55,41.19-15.24,56.76c1.88,22.31,19.82,43.06,16.43,68.74
				c-3.37,25.45-22.88,77.28-3.59,113.59l6.46-1.8c18.18-5.06,41.62-8.23,53.09-23.22C475.03,671.53,452.32,583.34,455.82,559.55z"
				/>
		</g>
		<path class="st10" d="M423.09,458.82L423.09,458.82l0.06,15.7l-11.12-2.98l5.48-14.21c0.11,0.05,0.23,0.09,0.35,0.13
			C419.54,458.05,421.27,458.51,423.09,458.82z"/>
		<path class="st10" d="M332.93,547.04c-2.8,1.63-6.38,3.97-9.96,6.98c-7.63,6.41-22.89,32.65-28.69,45.16
			c-4.72,10.18-15.54,13.61-21.83,2.15c3.77,4.28,8.29,5.81,12.18,4.27c9.53-3.76,10.1-13.93,14.28-25.44
			c4.18-11.49,14.63-21.6,19.51-30.65c4.88-9.06,2.79-18.81,4.88-28.57c2.09-9.75,23.34-45.98,23.34-45.98l0.53,0.95
			c-6.85,14.56-18.21,39.63-18.56,46.5C328.33,528.17,331.4,537.46,332.93,547.04z"/>
		<path class="st19" d="M363.71,684.51l-26.32,58.18c-1.5-0.36-3-0.72-4.5-1.12l23.23-59.59l-6.42-19.65L363.71,684.51z"/>
		<path class="st17" d="M425.76,594.43c0,0,19.65,12.57,31.5,10.31l-2.27,7.81c0,0-8.26-0.4-16.88-3.02
			c-9.52-2.9-16.38-8.57-16.38-8.57L425.76,594.43"/>
		
			<rect x="288.48" y="448.34" transform="matrix(0.9508 -0.3099 0.3099 0.9508 -125.8896 115.7038)" class="st17" width="25.48" height="11.45"/>
		
			<rect x="85.01" y="289.22" transform="matrix(0.8988 0.4384 -0.4384 0.8988 139.2094 -12.999)" class="st17" width="25.48" height="11.45"/>
		
			<rect x="686.23" y="555.02" transform="matrix(0.866 0.5 -0.5 0.866 374.0184 -274.3605)" class="st17" width="25.48" height="11.45"/>
		
			<rect x="749.96" y="466.84" transform="matrix(-0.866 0.5 -0.5 -0.866 1659.4971 500.4769)" class="st17" width="25.48" height="11.45"/>
		
			<rect x="60.66" y="193.27" transform="matrix(0.9924 0.1227 -0.1227 0.9924 24.9621 -7.4998)" class="st17" width="25.48" height="11.45"/>
		<path class="st2" d="M149.38,404.92c-3.4,20.4-13.32,36.39-24.02,35.23c-15-1.63-33.28-23.82-29.88-44.22
			c3.4-20.4,18.23-34.92,33.11-32.44S152.79,384.53,149.38,404.92z"/>
		<g>
			<path class="st2" d="M710.14,259.29l-24.07,10.24c-2.08-5.2-3.45-8.56-3.71-9.14c-1.35-3.03-44.57-12.59-41.68-17.27
				c2.9-4.67,21.98,0.59,23.04-1.89c2.45-5.73-20.25-51.14-16.19-51.66c7.61-0.97,15.61,28.49,19.09,27.39
				c3.48-1.09-11.29-29.93-6.14-33.77c5.16-3.84,11.34,28.62,14.3,29.08c2.97,0.47-1.59-31.37,4.75-29.9
				c3.45,0.79,3.35,28.41,7.29,27.07c3.95-1.34,7.4-22.53,11.27-21.24c3.87,1.29-5.38,21.07-2.27,31.81
				c3.1,10.73-0.34,16.51,9.76,32.07C706.64,253.67,708.2,256.13,710.14,259.29z"/>
		</g>
		<path class="st20" d="M360.39,436.49l10.2-3.34c0,0,0.29,5.3-4.51,6.35C363.06,440.17,360.39,436.49,360.39,436.49z"/>
		<path class="st4" d="M140.93,345.24c9.05,3.97,9.81,12.82,11.21,17.28c1.45,4.62-0.01,8.12,2.18,12.5
			c2.14,4.28,11.97,16.35,11.35,21.15c-0.8,6.24-10.61,12.01-16.68,14.93c-1.87-5.91,1.07-13.77-5.24-19.46
			c-4.23-4.12,1.97-9.45-1.7-14.96c-2.69-4.03-7.12-4.73-9.65-8.89c-1.67-2.73-7.14-3.57-8.9-0.96c-4.7,6.98-9.5,13.89-13.38,21.39
			c-1.98,3.84-7.13,13.15-7.2,15.56c-0.19,6.66,2.14,12.62,4.78,18.53c0.15,0.47,0.33,0.94,0.42,1.42c0.54,2.98-0.32,3.96-3.33,3.83
			c-0.58-0.02-1.18,0.08-1.74-0.2c-5.31-2.44-11.02-3.77-16.47-5.81c-9.53-3.57-15.59-6.83-14.96-16.16c0.29-4.32,3.03-7.6,3.8-9.23
			c5.48-11.63,8.3-23.92,17.47-33.32c1.88-1.92,3.74-3.9,6.28-4.88c10.78-4.16,21.19-9.25,32.25-12.71
			C134.59,344.68,137.76,344.75,140.93,345.24z"/>
		<g>
			<path class="st2" d="M182.21,418.49l10.42,8.61l48.18,5.3c7.47,0.82,12.62,7.89,11.12,15.26v0c-1.54,7.53-9.34,12-16.61,9.53
				l-46.9-15.9l-14.63,6.88l-18.57-5.06L182.21,418.49z"/>
			<path class="st2" d="M168.69,443.68l-11.07-0.28l-1.14,1.62c-2.22,3.14-7.03,2.62-8.51-0.93l0,0l0.28-25.95l1.06-1.38
				c1.03-1.34,2.99-1.52,4.24-0.38l2.02,1.84l26.63,0.28l-4.63,18.44C176.56,440.98,172.87,443.78,168.69,443.68z"/>
		</g>
		<path class="st2" d="M292.45,567.28l-36.16-64.05c0,0-0.42-16.95-14.45-23.95c-14.03-7.01-16.7-6.15-19.18-12.5
			c-2.63-6.73-5.22-1.52-4.11,1.09c1.46,3.44,6.97,11.68,6.97,11.68L214,478.68l-21.46-6.05c-1.84-0.52-5.45-1.05-6.05,0.86
			c-0.52,1.67,2.83,3.33,4.2,3.85l16.69,7.88l6.58,22.61l31.1,6.19l21.27,65.45c2.95,8.84,13.34,12.64,21.3,7.8l0,0
			C294.52,583.11,296.67,574.13,292.45,567.28z"/>
		<g>
			
				<linearGradient id="SVGID_00000090285931613629717660000005840830970868304007_" gradientUnits="userSpaceOnUse" x1="62.333" y1="552.4332" x2="150.1164" y2="496.1417">
				<stop  offset="0" style="stop-color:#27872C"/>
				<stop  offset="0.4066" style="stop-color:#2E9C39"/>
				<stop  offset="1" style="stop-color:#38B649"/>
			</linearGradient>
			<path style="fill:url(#SVGID_00000090285931613629717660000005840830970868304007_);" d="M186.26,508.06l-0.12,4.53
				c-11.62,1.18-24.26,2.91-30.13,4.12c-14.29,2.95-43.16,9.04-65.11,14.57l-4.19-11.76l-6.46-18.12
				c22.13-5.2,55.46-12.59,66.98-14.99c6.21-1.29,18.12-2.85,29.77-4.22l2.28,3.17c3.13,4.36,5.27,9.33,6.3,14.54
				C186.09,502.58,186.33,505.31,186.26,508.06z"/>
		</g>
		
			<linearGradient id="SVGID_00000152981099791696116190000005690456490247571862_" gradientUnits="userSpaceOnUse" x1="55.3234" y1="507.6764" x2="64.4247" y2="445.6998">
			<stop  offset="0" style="stop-color:#BFCFD3"/>
			<stop  offset="0.3191" style="stop-color:#D8E2E4"/>
			<stop  offset="0.7507" style="stop-color:#F4F7F8"/>
			<stop  offset="1" style="stop-color:#FFFFFF"/>
		</linearGradient>
		<path style="fill:url(#SVGID_00000152981099791696116190000005690456490247571862_);" d="M94.47,467.68
			c-2.69-12.85-14.42-18.9-16.22-19.63c-2.51,1.33-6.84,3.62-6.87,3.62l-6.93-35.21l-32.54,5.45l2.16,54.98
			c0.21,7.6,4.58,11.9,10.76,15.33c9.14,2.9,27.68,5.97,34.85,7.65C79.69,499.86,100.25,495.29,94.47,467.68z"/>
		<g>
			<path class="st2" d="M42.35,347.62c0,0-0.53-15.45-2.82-19.88c0,0,1.21-3.76,3.08-2.24c5.35,4.36,7.86,12.11,8.55,16
				C53.1,352.57,42.35,347.62,42.35,347.62z"/>
			<path class="st2" d="M32.03,417.62l6.02-59.05l9.56-25.95l13.52-23.48c0.72-1.25,2.38-1.55,3.5-0.65l0,0
				c0.78,0.63,1.07,1.68,0.72,2.62l-7.88,21.41l6.85-1.43l10.4,10.62l0.71,2.62c0.64,2.38-0.88,4.8-3.3,5.26l-2.62,0.5l0,0
				c-0.12,6.59-3.56,12.67-9.14,16.16l-6.72,4.21l9.98,40.11c2.37,9.53-0.73,17.56-9.56,21.84c-2.06,1-4.33,1.67-6.79,1.81
				c-6.34,0.37-11.21-1.34-13.2-5.21C32.26,425.51,31.63,421.53,32.03,417.62z"/>
		</g>
		<g>
			<path class="st4" d="M621.9,301.11c-2.45-0.6-4.89-1.19-7.34-1.79c-1.64,0.18-3.3,0.22-4.9,0.56
				c-6.43,1.36-12.79,2.75-19.35,3.66c-10.07,1.39-16.02,8.97-19.13,18.46c-0.96,2.92-1.96,5.57-4.28,7.79
				c-7.64,7.28-7.47,16.15,0.61,22.79c2.55,2.09,3.77,3.77,3.29,7.38c-0.81,6.04,3.14,10.8,5.9,15.78c0.8,0.3,0.92,1.77,2.19,1.28
				c1.72-2.72,0.05-5.3-0.46-7.87c-2.1-10.41-2.15-10.37,7.89-12.47c5.94-1.24,10.55-4.48,13.74-9.63c1.93-3.12,4.09-6,7.02-8.27
				c2.41-1.87,4.68-2.23,7.44-0.36c5.97,4.02,12.46,5.46,19.36,2.53c2.86-1.21,3.84-0.28,4.01,2.56c0.22,3.62,0.7,7.21,0.24,10.88
				c-0.42,3.29,0.33,5.93,4.38,6.64c4.15,0.73,5.03,3.33,2.61,6.78c-0.79,1.13-1.7,2.38-2.99,2.71c-6.09,1.53-7.29,6.66-8.8,11.58
				c-0.44,1.45-0.8,2.92-1.11,4.41c-0.1,1.65-1.15,3.56,1.24,4.52c2.2-0.5,3.55-2.21,5.11-3.61c3.7-3.33,6.88-7.33,11.41-9.6
				c7.12-3.57,9.03-9.8,7.71-16.77c-1.16-6.15-1.37-12.28-1.66-18.44c-0.26-5.58-2.36-10.22-6.53-13.95
				c-0.65-0.58-1.39-1.26-1.66-2.04C643.36,313.82,633.84,306.24,621.9,301.11z"/>
			<path class="st2" d="M633.34,386.17c0.82-2.59,1.63-5.18,2.46-7.77c1.03-3.24,2.26-5.85,6.4-6.53c2.55-0.42,4.43-3.09,5.35-5.77
				c1.21-3.5-0.61-6.66-4.08-6.25c-4.88,0.57-4.53-2.43-4.2-5.3c0.53-4.73,0.09-9.34-0.75-13.98c-0.39-2.19-0.96-2.68-3.18-1.49
				c-7.29,3.9-14.35,3-20.74-2.09c-2.49-1.98-4.64-1.75-7.01-0.18c-2.82,1.87-5.3,4.21-6.87,7.14
				c-4.56,8.49-11.79,12.32-21.11,12.51c-3.4,0.07-4.53,1.12-3.74,4.56c1.21,5.3,2.08,10.68,3.09,16.02
				c-0.15,1.15,0.34,2.14,0.76,3.15c2.71,6.34,5.2,12.79,8.26,18.96c1.11,2.24,6.18,6.7,8.68,7.9c6.05,2.91,12.93,3.73,27.87-5.72
				C629.21,397.29,632.52,392.45,633.34,386.17z"/>
		</g>
		
			<linearGradient id="SVGID_00000045592801719519544920000005528262784908204937_" gradientUnits="userSpaceOnUse" x1="107.6835" y1="105.0796" x2="319.8017" y2="105.0796">
			<stop  offset="0" style="stop-color:#BFCFD3"/>
			<stop  offset="1" style="stop-color:#DBE8ED"/>
		</linearGradient>
		<path style="fill:url(#SVGID_00000045592801719519544920000005528262784908204937_);" d="M319.8,105.08l-14.73-8.5v5.06h-75.19
			c-1.78-32.17-28.43-57.71-61.05-57.71c-33.77,0-61.15,27.38-61.15,61.15s27.38,61.15,61.15,61.15c32.62,0,59.27-25.54,61.05-57.71
			h75.19v5.07L319.8,105.08z"/>
		
			<linearGradient id="SVGID_00000168118060007296830130000006326040132452687495_" gradientUnits="userSpaceOnUse" x1="335.1071" y1="105.0796" x2="547.2253" y2="105.0796">
			<stop  offset="0" style="stop-color:#BFCFD3"/>
			<stop  offset="1" style="stop-color:#DBE8ED"/>
		</linearGradient>
		<path style="fill:url(#SVGID_00000168118060007296830130000006326040132452687495_);" d="M547.23,105.08l-14.73-8.5v5.06h-75.19
			c-1.78-32.17-28.43-57.71-61.05-57.71c-33.77,0-61.15,27.38-61.15,61.15s27.38,61.15,61.15,61.15c32.62,0,59.27-25.54,61.05-57.71
			h75.19v5.07L547.23,105.08z"/>
		<path class="st25" d="M442.76,347.7c-1.46,4.42-7.08,9.65-14.8,13.27c-3.57,1.68-7.13,2.79-10.35,3.32c-6.12,1-11-0.05-12.47-3.18
			c-1.88-4.01,2.46-10.16,10.04-14.91c1.45-0.9,3.01-1.75,4.68-2.54c8.42-3.94,16.72-4.72,20.76-2.33c0.94,0.57,1.65,1.29,2.07,2.19
			C443.27,344.76,443.26,346.18,442.76,347.7z"/>
		<path class="st2" d="M443.18,263.94l-20.44,24.24l17.88,53.16l2.14,6.36c-1.46,4.42-7.08,9.65-14.8,13.27
			c-3.57,1.68-7.13,2.79-10.35,3.32l-2.43-18.09l-7.96-59.47c0,0-10.25-13.5-3.66-27.73c6.6-14.23,9.22-15.22,7.2-21.74
			c-2.14-6.9,3.12-4.44,3.89-1.71c1.01,3.6,1.84,13.48,1.84,13.48l8.45-7.86l13-18.11c1.1-1.56,3.6-4.23,5.26-3.1
			c1.45,0.98-0.14,4.37-0.87,5.63l-8.13,16.57L443.18,263.94z"/>
		<circle class="st17" cx="168.84" cy="105.08" r="50.82"/>
		<g>
			
				<linearGradient id="SVGID_00000164476963386455376340000002530921540841322391_" gradientUnits="userSpaceOnUse" x1="562.5308" y1="105.0796" x2="684.8364" y2="105.0796">
				<stop  offset="0" style="stop-color:#BFCFD3"/>
				<stop  offset="1" style="stop-color:#DBE8ED"/>
			</linearGradient>
			<circle style="fill:url(#SVGID_00000164476963386455376340000002530921540841322391_);" cx="623.68" cy="105.08" r="61.15"/>
			<circle class="st17" cx="623.68" cy="105.08" r="50.82"/>
		</g>
		<circle class="st17" cx="396.26" cy="105.08" r="50.82"/>
		<g>
			<g>
				<g>
					<path class="st20" d="M645.22,74.45c-2.97,0-5.38,2.42-5.38,5.38c0,1.2,0.41,2.31,1.08,3.2l-8.78,9.53
						c-0.41-0.1-0.83-0.17-1.27-0.17c-1.1,0-2.13,0.34-2.98,0.91l-6.26-4.69c0.16-0.51,0.27-1.04,0.27-1.59
						c0-2.97-2.42-5.38-5.38-5.38s-5.38,2.42-5.38,5.38c0,0.56,0.11,1.09,0.27,1.59l-6.26,4.69c-0.85-0.57-1.88-0.91-2.98-0.91
						c-2.97,0-5.38,2.42-5.38,5.38s2.42,5.38,5.38,5.38s5.38-2.42,5.38-5.38c0-0.56-0.11-1.09-0.27-1.59l6.26-4.69
						c0.85,0.57,1.88,0.91,2.98,0.91s2.13-0.34,2.98-0.91l6.26,4.69c-0.16,0.51-0.27,1.04-0.27,1.59c0,2.97,2.42,5.38,5.38,5.38
						s5.38-2.42,5.38-5.38c0-1.2-0.41-2.31-1.08-3.2l8.78-9.53c0.41,0.1,0.83,0.17,1.27,0.17c2.97,0,5.38-2.42,5.38-5.38
						S648.19,74.45,645.22,74.45z"/>
				</g>
			</g>
			<g>
				<g>
					<path class="st20" d="M620.09,103.17h-7.18c-0.99,0-1.79,0.8-1.79,1.79v23.57h10.77v-23.57
						C621.89,103.97,621.09,103.17,620.09,103.17z"/>
				</g>
			</g>
			<g>
				<g>
					<path class="st20" d="M634.45,110.34h-7.18c-0.99,0-1.79,0.8-1.79,1.79v16.39h10.77v-16.39
						C636.25,111.15,635.44,110.34,634.45,110.34z"/>
				</g>
			</g>
			<g>
				<g>
					<path class="st20" d="M648.81,95.99h-7.18c-0.99,0-1.79,0.8-1.79,1.79v30.75h10.77V97.78C650.6,96.79,649.8,95.99,648.81,95.99
						z"/>
				</g>
			</g>
			<g>
				<g>
					<path class="st20" d="M605.74,113.93h-7.18c-0.99,0-1.79,0.8-1.79,1.79v12.8h10.77v-12.8
						C607.53,114.74,606.73,113.93,605.74,113.93z"/>
				</g>
			</g>
			<g>
				<g>
					<path class="st20" d="M652.52,132.12c-8.01,0-11.69,0-13.15,0c-0.66,0-0.9,0-0.9,0c-2.64,0-12.49,0-43.62,0
						c-0.99,0-1.79,0.8-1.79,1.79s0.8,1.79,1.79,1.79c21.72,0,37.38,0,57.67,0c0.99,0,1.79-0.8,1.79-1.79
						S653.51,132.12,652.52,132.12z"/>
				</g>
			</g>
		</g>
		<g id="_09-timer">
			<path class="st20" d="M416.79,91.35l4.06-4.06l-3.99-4l-4.34,4.34c-3.97-2.81-8.6-4.54-13.43-5.03v-5.79h5.65v-5.65h-16.95v5.65
				h5.65v5.79c-4.84,0.48-9.47,2.22-13.43,5.03l-4.34-4.34l-3.99,4l4.06,4.06c-10.71,11.34-10.2,29.22,1.14,39.93
				c11.34,10.71,29.22,10.2,39.93-1.14C427.07,119.25,427.07,102.24,416.79,91.35L416.79,91.35z M396.26,133.31
				c-12.48,0-22.6-10.12-22.6-22.6s10.12-22.6,22.6-22.6c12.48,0,22.6,10.12,22.6,22.6C418.84,123.19,408.73,133.3,396.26,133.31z"
				/>
			<path class="st20" d="M396.26,93.77v16.95h-16.95c0,9.36,7.59,16.95,16.95,16.95s16.95-7.59,16.95-16.95
				S405.62,93.77,396.26,93.77z"/>
		</g>
		<path class="st20" d="M190.78,83.13h-2.44v-4.88c0-1.35-1.09-2.44-2.44-2.44h-2.44c-1.35,0-2.44,1.09-2.44,2.44v4.88h-24.38v-4.88
			c0-1.35-1.09-2.44-2.44-2.44h-2.44c-1.35,0-2.44,1.09-2.44,2.44v4.88h-2.44c-4.03,0-7.32,3.28-7.32,7.32v36.58
			c0,4.03,3.28,7.32,7.32,7.32h43.89c4.03,0,7.32-3.28,7.32-7.32V90.45C198.1,86.42,194.82,83.13,190.78,83.13z M193.22,127.03
			c0,1.34-1.09,2.44-2.44,2.44h-43.89c-1.34,0-2.44-1.09-2.44-2.44V92.37h48.77V127.03z"/>
		<g>
			<path class="st20" d="M165.86,99.35v3.21l-7.96,18.22h-5.39l7.68-17.39h-7.1v3.49h-4.41v-7.53H165.86z"/>
		</g>
		<g>
			<path class="st20" d="M168.26,99.19h9.8c2.34,0,4.41,0.45,6.21,1.34c1.8,0.89,3.19,2.15,4.19,3.77c1,1.62,1.49,3.51,1.49,5.67
				c0,2.16-0.5,4.05-1.49,5.67c-1,1.62-2.39,2.88-4.19,3.77c-1.8,0.89-3.87,1.34-6.21,1.34h-9.8V99.19z M177.81,116.66
				c2.16,0,3.88-0.6,5.16-1.8c1.28-1.2,1.93-2.83,1.93-4.88c0-2.05-0.64-3.68-1.93-4.88c-1.28-1.2-3-1.8-5.16-1.8h-4.56v13.37
				H177.81z"/>
		</g>
	</g>
</g>
</svg>
