<?xml version="1.0" encoding="utf-8"?>
<!-- Generator: Adobe Illustrator 25.4.1, SVG Export Plug-In . SVG Version: 6.00 Build 0)  -->
<svg version="1.1" xmlns="http://www.w3.org/2000/svg" xmlns:xlink="http://www.w3.org/1999/xlink" x="0px" y="0px"
	 viewBox="0 0 800 800" style="enable-background:new 0 0 800 800;" xml:space="preserve">
<style type="text/css">
	.st0{fill:url(#SVGID_1_);}
	
		.st1{clip-path:url(#SVGID_00000050641688209761834960000015773118935070425511_);fill:url(#SVGID_00000134967914117909376980000012209122107462329244_);}
	.st2{clip-path:url(#SVGID_00000050641688209761834960000015773118935070425511_);fill:#E4AEB5;}
	
		.st3{clip-path:url(#SVGID_00000050641688209761834960000015773118935070425511_);fill:url(#SVGID_00000155108240453825307910000003021837934900843691_);}
	
		.st4{clip-path:url(#SVGID_00000050641688209761834960000015773118935070425511_);fill:url(#SVGID_00000168079263203489407260000016425652647719958445_);}
	
		.st5{clip-path:url(#SVGID_00000050641688209761834960000015773118935070425511_);fill:url(#SVGID_00000162311293175012127800000000382553826465092746_);}
	.st6{clip-path:url(#SVGID_00000050641688209761834960000015773118935070425511_);fill:#271F44;}
	.st7{clip-path:url(#SVGID_00000050641688209761834960000015773118935070425511_);fill:#FDC1A2;}
	
		.st8{clip-path:url(#SVGID_00000050641688209761834960000015773118935070425511_);fill:url(#SVGID_00000120519320295233270510000013258027924984498840_);}
	
		.st9{clip-path:url(#SVGID_00000050641688209761834960000015773118935070425511_);fill:url(#SVGID_00000079443772804477646490000009935372576224077699_);}
	
		.st10{clip-path:url(#SVGID_00000050641688209761834960000015773118935070425511_);fill:url(#SVGID_00000152957375003053556110000014497277073838273165_);}
	.st11{clip-path:url(#SVGID_00000050641688209761834960000015773118935070425511_);fill:#AABEC1;}
	.st12{clip-path:url(#SVGID_00000050641688209761834960000015773118935070425511_);fill:#27872C;}
	
		.st13{clip-path:url(#SVGID_00000050641688209761834960000015773118935070425511_);fill:url(#SVGID_00000181073516492954665130000016605710174272150190_);}
	.st14{clip-path:url(#SVGID_00000050641688209761834960000015773118935070425511_);fill:#FEC1C7;}
	.st15{clip-path:url(#SVGID_00000050641688209761834960000015773118935070425511_);fill:#EA9C36;}
	
		.st16{clip-path:url(#SVGID_00000050641688209761834960000015773118935070425511_);fill:url(#SVGID_00000070118293940049959670000007507423832156866717_);}
	.st17{clip-path:url(#SVGID_00000050641688209761834960000015773118935070425511_);fill:#BFCFD3;}
	.st18{clip-path:url(#SVGID_00000050641688209761834960000015773118935070425511_);fill:#C3625B;}
	
		.st19{clip-path:url(#SVGID_00000050641688209761834960000015773118935070425511_);fill:url(#SVGID_00000059310473946519011540000002388440042465127312_);}
	
		.st20{clip-path:url(#SVGID_00000050641688209761834960000015773118935070425511_);fill:url(#SVGID_00000158744029403736370770000010312513324645655939_);}
	
		.st21{opacity:0.5;clip-path:url(#SVGID_00000050641688209761834960000015773118935070425511_);fill:url(#SVGID_00000001624719475170914900000017807259201681505946_);}
	
		.st22{clip-path:url(#SVGID_00000050641688209761834960000015773118935070425511_);fill:url(#SVGID_00000076596346123525760590000000393114812490460057_);}
	.st23{clip-path:url(#SVGID_00000050641688209761834960000015773118935070425511_);}
	
		.st24{clip-path:url(#SVGID_00000147178355688472805620000001892407041647080889_);fill:url(#SVGID_00000052074435749418953210000013652085685383894685_);}
	.st25{opacity:0.8;clip-path:url(#SVGID_00000147178355688472805620000001892407041647080889_);fill:#27872C;}
	
		.st26{clip-path:url(#SVGID_00000050641688209761834960000015773118935070425511_);fill:url(#SVGID_00000102520356379024841890000012591245220347203514_);}
	
		.st27{clip-path:url(#SVGID_00000146469527634559908670000013256586000453010579_);fill:url(#SVGID_00000117665274971927247860000008379636554522547849_);}
	.st28{clip-path:url(#SVGID_00000050641688209761834960000015773118935070425511_);fill:#AD4B49;}
	.st29{fill:url(#SVGID_00000152238984761365844430000004405505249904367274_);}
	.st30{fill:url(#SVGID_00000031194053782218585350000001385588036547149746_);}
	.st31{fill:none;}
	.st32{fill:#F8B143;}
	.st33{fill:#EA9C36;}
	
		.st34{clip-path:url(#SVGID_00000050641688209761834960000015773118935070425511_);fill:url(#SVGID_00000072260443113362317210000013326132592847802246_);}
	.st35{fill:url(#SVGID_00000085937121925193123490000001334996615211843237_);}
	.st36{fill:#271F44;}
	.st37{fill:url(#SVGID_00000041975585890739267530000011506415612027000203_);}
	.st38{fill:url(#SVGID_00000117653277690549068350000012608343868566376370_);}
	.st39{fill:url(#SVGID_00000013887374111810788160000010372976966936541605_);}
	.st40{fill:#38B649;}
	.st41{fill:#FFFFFF;}
	.st42{fill:url(#SVGID_00000028299816969487446610000009236660962453058445_);}
	.st43{fill:url(#SVGID_00000125590991571300257270000000036842547900525718_);}
	.st44{fill:url(#SVGID_00000182486493074882132530000013568004784604053683_);}
	.st45{fill:url(#SVGID_00000168089708707216176800000004293526578500382891_);}
	.st46{opacity:0.6;fill:url(#SVGID_00000059294947987321073360000008366673650891115415_);}
	.st47{opacity:0.8;fill:url(#SVGID_00000067930906837161133600000010018741203725883015_);}
	.st48{clip-path:url(#SVGID_00000119830865911420354280000000908877847087665041_);}
	.st49{fill:url(#SVGID_00000120542257027674732700000018136531896735650946_);}
	.st50{fill:url(#SVGID_00000173853389450142301090000002776625489701772938_);}
	.st51{fill:url(#SVGID_00000129181975842113733240000011872697359227046576_);}
	.st52{fill:url(#SVGID_00000010997131943814297980000009313119944539756467_);}
	.st53{fill:url(#SVGID_00000114781708957498665080000017059712246206542768_);}
	.st54{fill:url(#SVGID_00000009564414994101952860000016646151585447824003_);}
	.st55{opacity:0.5;clip-path:url(#SVGID_00000119830865911420354280000000908877847087665041_);}
	.st56{fill:url(#SVGID_00000142898749131351253550000001147684691001097110_);}
	.st57{fill:url(#SVGID_00000007388585515634132460000001622285779619878287_);}
	.st58{fill:url(#SVGID_00000009549254808973822230000003496668498018722732_);}
	.st59{fill:url(#SVGID_00000062904048981288492370000017456239316984233145_);}
	.st60{fill:url(#SVGID_00000064353980440364508450000013191784057218979736_);}
	.st61{fill:url(#SVGID_00000006669210840759540390000018043302245835141533_);}
	.st62{fill:url(#SVGID_00000035514786693545352340000010883002297573042353_);}
	.st63{fill:url(#SVGID_00000141434896798366906690000010121134440942265269_);}
	.st64{fill:url(#SVGID_00000011718752359962070760000014608776181136269705_);}
	.st65{fill:url(#SVGID_00000104686412272902909330000018401625799919605422_);}
	.st66{fill:url(#SVGID_00000171701004502782430430000011075741546714879873_);}
	.st67{fill:url(#SVGID_00000016768977405790870230000004069028683527524481_);}
	.st68{fill:url(#SVGID_00000180364253781804772900000007821690606582466179_);}
	.st69{fill:url(#SVGID_00000162341108232855136960000010428467074460119711_);}
	
		.st70{clip-path:url(#SVGID_00000119830865911420354280000000908877847087665041_);fill:url(#SVGID_00000049938326907212217140000014405520865413911453_);}
	.st71{opacity:0.5;clip-path:url(#SVGID_00000119830865911420354280000000908877847087665041_);fill:#FFFFFF;}
	.st72{fill:#C3625B;}
	.st73{fill:url(#SVGID_00000142167869904061202250000016991877166076858795_);}
	.st74{fill:#FEC1C7;}
	.st75{fill:#FFB27D;}
	.st76{fill:#E4AEB5;}
	.st77{fill:url(#SVGID_00000109742607428922046570000015511060163755955840_);}
	.st78{fill:url(#SVGID_00000161613079617253673470000014792349100888666802_);}
	.st79{fill:url(#SVGID_00000091728400903143734750000000125893382099058363_);}
	.st80{fill:url(#SVGID_00000060723984976181281540000006145600930432003994_);}
	.st81{fill:url(#SVGID_00000079487612060392371890000014313830177317941667_);}
	.st82{fill:#A2B8BC;}
	.st83{fill:url(#SVGID_00000128455667659742464190000018026017146481365386_);}
	.st84{opacity:0.5;fill:url(#SVGID_00000101098300648744217500000001687998315069553581_);}
	.st85{fill:url(#SVGID_00000049940739665853101210000015514109424151133089_);}
	.st86{fill:url(#SVGID_00000013876777231449745350000014074101952144186795_);}
	.st87{fill:url(#SVGID_00000157266141239154016910000004315904850585489301_);}
	.st88{fill:url(#SVGID_00000078006680021792116050000016937555067145610117_);}
	.st89{fill:#27872C;}
	.st90{fill:url(#SVGID_00000054251934577473357210000003988406899589396361_);}
	.st91{fill:url(#SVGID_00000032644481259623038190000004243481694658570917_);}
	.st92{fill:url(#SVGID_00000175289050139103729030000016835107381472260496_);}
	.st93{fill:url(#SVGID_00000164505402776842938530000007132321320269948041_);}
	.st94{fill:url(#SVGID_00000073710751413434799030000007976484202740931769_);}
	.st95{opacity:0.5;fill:#A2B8BC;}
	.st96{fill:url(#SVGID_00000093871975605632453020000011959595163561386175_);}
	.st97{opacity:0.3;fill:#BFCFD3;}
	.st98{fill:url(#SVGID_00000111153598985776508990000017826289502375689366_);}
	.st99{fill:url(#SVGID_00000108310599857774502160000007437482996283528082_);}
	.st100{fill:url(#SVGID_00000151507270662686436400000003425907228771558034_);}
	.st101{fill:url(#SVGID_00000118375209048415100000000017455369118797140109_);}
	.st102{fill:url(#SVGID_00000049203686453723520940000015618927541926958769_);}
	.st103{fill:url(#SVGID_00000078725439564730976460000007331025008477454492_);}
</style>
<g id="Layer_2">
</g>
<g id="Layer_4">
	<g>
		<g>
			
				<linearGradient id="SVGID_1_" gradientUnits="userSpaceOnUse" x1="475.3171" y1="743.3548" x2="315.1885" y2="122.3102" gradientTransform="matrix(0.9683 0.2497 -0.2497 0.9683 124.363 -82.4132)">
				<stop  offset="0" style="stop-color:#DBE8ED"/>
				<stop  offset="8.407295e-03" style="stop-color:#DCE9ED"/>
				<stop  offset="0.1995" style="stop-color:#E8F1F5"/>
				<stop  offset="0.4516" style="stop-color:#F0F7FA"/>
				<stop  offset="1" style="stop-color:#F2F8FB"/>
			</linearGradient>
			<path class="st0" d="M785.95,536.67c-44.38,172.12-237.14,235.67-451.54,215.94c-79.06-7.27-193.14-50.57-243.72-99.44
				C6.39,571.7-10.4,404.13,17.34,296.55C61.71,124.43,200.63,91.91,353.51,127.71c89.38,20.93,158.37,91.35,197.8,98.21
				C721.76,255.6,821.34,399.42,785.95,536.67z"/>
			<g>
				<defs>
					<path id="SVGID_00000010273321788443302420000005620008477515177108_" d="M785.95,536.67
						c-44.38,172.12-237.14,235.67-451.54,215.94c-79.06-7.27-193.14-50.57-243.72-99.44C6.39,571.7-10.4,404.13,17.34,296.55
						C61.71,124.43,200.63,91.91,353.51,127.71c89.38,20.93,222.15,14.74,261.88,19.59C750.5,163.81,821.34,399.42,785.95,536.67z"
						/>
				</defs>
				<clipPath id="SVGID_00000170239036947075035110000013645258362777621151_">
					<use xlink:href="#SVGID_00000010273321788443302420000005620008477515177108_"  style="overflow:visible;"/>
				</clipPath>
				
					<linearGradient id="SVGID_00000171685014125929956870000016396626966854153367_" gradientUnits="userSpaceOnUse" x1="5" y1="495.9363" x2="795" y2="495.9363">
					<stop  offset="0" style="stop-color:#BFCFD3;stop-opacity:0"/>
					<stop  offset="0.0639" style="stop-color:#BFCFD3;stop-opacity:0.1413"/>
					<stop  offset="0.4524" style="stop-color:#BFCFD3"/>
					<stop  offset="0.9226" style="stop-color:#BFCFD3;stop-opacity:0.1413"/>
					<stop  offset="1" style="stop-color:#BFCFD3;stop-opacity:0"/>
				</linearGradient>
				
					<rect x="5" y="485.76" style="clip-path:url(#SVGID_00000170239036947075035110000013645258362777621151_);fill:url(#SVGID_00000171685014125929956870000016396626966854153367_);" width="790" height="20.36"/>
				<polygon style="clip-path:url(#SVGID_00000170239036947075035110000013645258362777621151_);fill:#E4AEB5;" points="
					171.17,420.09 180.71,514.12 161.51,557.23 				"/>
				
					<linearGradient id="SVGID_00000044151467990057539250000004693290641501907877_" gradientUnits="userSpaceOnUse" x1="89.0013" y1="635.6096" x2="171.1688" y2="635.6096">
					<stop  offset="0" style="stop-color:#38B649"/>
					<stop  offset="0.5934" style="stop-color:#2E9C39"/>
					<stop  offset="1" style="stop-color:#27872C"/>
				</linearGradient>
				
					<path style="clip-path:url(#SVGID_00000170239036947075035110000013645258362777621151_);fill:url(#SVGID_00000044151467990057539250000004693290641501907877_);" d="
					M169.73,497.92c0,0,3.23,28.77,0,36.4c-3.23,7.63-8.51,12.33-8.22,22.9c0.29,10.57-17.32,72.81-17.32,79.56
					c0,6.75-4.15,37.48-8.51,44.92s-4.11,28.48-6.17,43.16c-2.06,14.68-6.17,48.44-6.17,48.44H89l20.65-265.24L169.73,497.92z"/>
				
					<linearGradient id="SVGID_00000162353188451352096370000012735522390835865473_" gradientUnits="userSpaceOnUse" x1="60.3191" y1="630.6889" x2="171.1721" y2="630.6889">
					<stop  offset="0" style="stop-color:#27872C"/>
					<stop  offset="0.4066" style="stop-color:#2E9C39"/>
					<stop  offset="1" style="stop-color:#38B649"/>
				</linearGradient>
				
					<path style="clip-path:url(#SVGID_00000170239036947075035110000013645258362777621151_);fill:url(#SVGID_00000162353188451352096370000012735522390835865473_);" d="
					M171.17,495.16l-26.73,68.46l-8.34,90.8l-21.79,125.54H60.32c0,0,0-26.79,0-32.91c0-6.13,19.14-71.96,19.14-71.96V481.42
					l0.62,0.09l90.92,13.63L171.17,495.16z"/>
				
					<linearGradient id="SVGID_00000107563214831827128180000004613307665744419468_" gradientUnits="userSpaceOnUse" x1="624.7118" y1="646.2928" x2="715.265" y2="646.2928">
					<stop  offset="0" style="stop-color:#BFCFD3"/>
					<stop  offset="0.4778" style="stop-color:#C1D1D5"/>
					<stop  offset="0.7435" style="stop-color:#C9D8DD"/>
					<stop  offset="0.9569" style="stop-color:#D7E5E9"/>
					<stop  offset="1" style="stop-color:#DBE8ED"/>
				</linearGradient>
				
					<path style="clip-path:url(#SVGID_00000170239036947075035110000013645258362777621151_);fill:url(#SVGID_00000107563214831827128180000004613307665744419468_);" d="
					M630.89,548.67c0,0-3.09,56.37,0,72.16c3.09,15.79,0.34,28.2-1.37,38.2c-1.72,10.01-4.8,84.89-4.8,84.89h54.81l35.74-171.33
					L630.89,548.67"/>
				<path style="clip-path:url(#SVGID_00000170239036947075035110000013645258362777621151_);fill:#271F44;" d="M258.53,555.25
					l18.86,92.97c0,0-12.85,29.96-11.64,66.02c1.2,36.06,4.21,45.68,4.21,45.68h28.25l20.22-116l5.62-87.96L258.53,555.25z"/>
				<path style="clip-path:url(#SVGID_00000170239036947075035110000013645258362777621151_);fill:#FDC1A2;" d="M320.88,218.42
					c0,0,9.02,9.97,10.21,16.39c1.19,6.41-1.19,16.62,0,19.47c1.19,2.85,8.12,9.73,7.36,12.11c-1.01,3.15-5.69,3.24-5.69,3.24
					s0.7,3.41,0.23,4.83c-0.47,1.42-2.14,2.14-1.9,3.8c0.24,1.66-1.77,0.47-1.36,3.09c0.41,2.61,1.86,11.93-1.96,13.77
					c-7.59,3.65-25.88-4.27-25.88-4.27l-6.17,24.7l-23.51-14.49v-71.95L320.88,218.42z"/>
				<path style="clip-path:url(#SVGID_00000170239036947075035110000013645258362777621151_);fill:#271F44;" d="M289.87,205.16
					c4.04,0.45,7.74,0.16,11.52,0.13c8.63-0.08,23.7,3.73,24.63,9.84c1.36,8.99-11.91,31.96-22.49,34.46
					c-10.58,2.5-14.64,5.49-12.64,15.98c2,10.49,8.37,17.85,6.85,37.1c-0.94,11.96,10.96,15.87,19.47,38.5
					c4.99,13.26,8.82,21.63,8.82,21.63l-84.63,11.1c0,0-30.66-14.24-20.29-42.95c4.33-11.98,32.68-25.59,26.45-41.39
					c-13.8-34.97-9.29-63.42,18.63-80.43C277.31,202.34,284.9,204.6,289.87,205.16z"/>
				
					<linearGradient id="SVGID_00000017488053623421812750000017929491363276565647_" gradientUnits="userSpaceOnUse" x1="241.3804" y1="500.7273" x2="340.5364" y2="500.7273">
					<stop  offset="0" style="stop-color:#DBE8ED"/>
					<stop  offset="0.4997" style="stop-color:#CFDEE2"/>
					<stop  offset="1" style="stop-color:#BFCFD3"/>
				</linearGradient>
				
					<path style="clip-path:url(#SVGID_00000170239036947075035110000013645258362777621151_);fill:url(#SVGID_00000017488053623421812750000017929491363276565647_);" d="
					M340.54,571.14l-25.28,0.51l-22.28,0.44l-46.92,0.94v-22.76c0,0-6.61-32.83-4.11-49.54c2.49-16.69,13.22-46.1,13.22-46.1
					l-0.08-0.93l-2.07-25.27l3.21,0.29l37.91,3.37l35.8,3.18l1.17,18.43l1.48,23.32v32.26L340.54,571.14z"/>
				
					<linearGradient id="SVGID_00000003092795177136811260000013624332547191846579_" gradientUnits="userSpaceOnUse" x1="253.0128" y1="441.0582" x2="331.1094" y2="441.0582">
					<stop  offset="0" style="stop-color:#38B649"/>
					<stop  offset="0.5934" style="stop-color:#2E9C39"/>
					<stop  offset="1" style="stop-color:#27872C"/>
				</linearGradient>
				
					<polygon style="clip-path:url(#SVGID_00000170239036947075035110000013645258362777621151_);fill:url(#SVGID_00000003092795177136811260000013624332547191846579_);" points="
					331.11,453.69 255.08,453.69 253.01,428.42 256.23,428.71 294.13,432.08 329.94,435.26 				"/>
				
					<linearGradient id="SVGID_00000021108709448393554690000000500239581549308586_" gradientUnits="userSpaceOnUse" x1="289.3896" y1="437.9066" x2="289.3896" y2="313.2374">
					<stop  offset="0" style="stop-color:#BFCFD3"/>
					<stop  offset="0.5003" style="stop-color:#CFDEE2"/>
					<stop  offset="1" style="stop-color:#DBE8ED"/>
				</linearGradient>
				
					<path style="clip-path:url(#SVGID_00000170239036947075035110000013645258362777621151_);fill:url(#SVGID_00000021108709448393554690000000500239581549308586_);" d="
					M339,430.19c-0.74,2.2-4.42,7.72-4.42,7.72h-81.62l-2.18-1.71c-3.63-2.85-4.71-7.89-2.56-11.96l0.65-1.24
					c1.21-2.28,1.48-4.93,0.79-7.41l-11.41-40.55c0,0,0.73-36.04,6.25-45.6c5.52-9.56,13.24-16.55,25.37-16.18
					c12.14,0.37,22.8,5.88,29.79,16.18c6.99,10.29,40.08,46.33,40.82,59.2c0.73,12.86-5.15,19.49-5.89,25
					C333.85,419.15,339.73,427.97,339,430.19z"/>
				<path style="clip-path:url(#SVGID_00000170239036947075035110000013645258362777621151_);fill:#AABEC1;" d="M315.26,571.65
					l-22.28,0.44l-0.32-7.31l-30.44-95.32c-0.59-1.83-0.85-3.76-0.78-5.68l0.4-10.08h30.32l-0.86,9.54l18.49,99.52L315.26,571.65z"
					/>
				<path style="clip-path:url(#SVGID_00000170239036947075035110000013645258362777621151_);fill:#27872C;" d="M295.43,446.75
					c-0.07,1.64-1.13,2.84-2.98,3.7l-0.29,3.25h-30.32l0.13-3.31c-0.51-0.14-1-0.29-1.44-0.43c-1.88-0.6-3.2-2.28-3.31-4.25
					l-0.45-7.79h37.54C294.72,441.64,295.55,443.54,295.43,446.75z"/>
				<path style="clip-path:url(#SVGID_00000170239036947075035110000013645258362777621151_);fill:#AABEC1;" d="M294.13,432.08
					c-0.08,2.41,0.01,4.28,0.18,5.83h-37.54l-0.54-9.19l-3.83-65.22c-0.5-8.49,3.87-35.16,26.52-32.69
					c22.66,2.48,24.41,22.28,23.93,32.31c-0.82,17.28-8.35,60.2-8.7,68.65C294.14,431.87,294.13,431.97,294.13,432.08z"/>
				<path style="clip-path:url(#SVGID_00000170239036947075035110000013645258362777621151_);fill:#271F44;" d="M428.82,507.46
					c0,0-8.79,27.92-4.56,53.5c1.72,10.43,8.43,23.33,15.46,32.4c7.13,9.2,12.52,19.63,15.98,30.74l19.81,63.72l-19.04,72.09
					l44.1-3.84c0,0,29.91-73.76,29.91-87.33c0-13.57-19.2-152.53-19.2-152.53L428.82,507.46z"/>
				<path style="clip-path:url(#SVGID_00000170239036947075035110000013645258362777621151_);fill:#E4AEB5;" d="M410.88,392.48
					c0.02,0.05,0.03,0.09,0.05,0.14c1.07,2.71,36.04,90.92,52.7,88.33c27.17-4.23,72.2-69.19,75.58-74.11
					c0.14-0.2,0.3-0.37,0.49-0.52l18.68-14.56c0.36-0.28,0.63-0.66,0.78-1.09l3.18-9.26c0.15-0.44,0.43-0.83,0.81-1.11l14.18-10.63
					c0.29-0.22,0.52-0.5,0.69-0.82l2.43-4.81c0.35-0.69,0.33-1.52-0.05-2.2l0,0c-0.77-1.38-2.67-1.62-3.75-0.46l-5.46,5.82
					c-0.37,0.39-0.86,0.65-1.39,0.72l-14.97,2.03c-0.26,0.03-0.52,0.03-0.77-0.02l-9.23-1.83c-0.68-0.14-1.39,0.04-1.93,0.48
					l-4.36,3.53c-0.3,0.24-0.53,0.55-0.68,0.9l-10.12,23.59c-0.17,0.41-0.46,0.76-0.83,1.01l-52.42,35.96
					c-1.34,0.92-3.19,0.23-3.59-1.34c-3.1-12.07-13.89-53.97-15.27-57.92c-2.62-7.5-11.14-20.88-25.95-18.18
					C414.56,358.85,403.75,371.4,410.88,392.48z"/>
				
					<linearGradient id="SVGID_00000111165874358617756290000015414600211124980140_" gradientUnits="userSpaceOnUse" x1="459.4698" y1="524.1318" x2="459.4698" y2="323.481">
					<stop  offset="0" style="stop-color:#27872C"/>
					<stop  offset="0.4066" style="stop-color:#2E9C39"/>
					<stop  offset="1" style="stop-color:#38B649"/>
				</linearGradient>
				
					<path style="clip-path:url(#SVGID_00000170239036947075035110000013645258362777621151_);fill:url(#SVGID_00000111165874358617756290000015414600211124980140_);" d="
					M515.99,516.21l-2.15,0.7c-28.79,9.38-59.79,9.63-88.73,0.7l-4.52-1.4l2.7-45.64c0,0-5.9-38.27-7.63-44.86
					c-3.72-14.1-12.71-36.17-12.37-49.62c0.35-13.46-3.93-36.21,10.22-46.57c1.3-0.95,2.64-2.46,4.02-4.4
					c8.81-2.01,17.92-2.53,22.53,0.43c7.4,4.76,24.15,21.86,30.32,27.14c5.48,4.71,12.63,11.73,21.19,9.04
					c6.3,5.32,17.31,15.81,17.86,28.17c0.06,1.3,0.09,2.51,0.09,3.68c0.06,13.17-2.85,18.77-2.85,26.2c0,1.85,0.18,4.96,0.44,8.76
					c0.87,12.79,2.78,33.41,2.53,40.32c-0.35,8.96,3.26,18.36,4.63,27.33C515.65,505.17,515.99,516.21,515.99,516.21z"/>
				<path style="clip-path:url(#SVGID_00000170239036947075035110000013645258362777621151_);fill:#E4AEB5;" d="M458.52,379.1
					c-1.51,5.12-3.95,8.81-6.73,10.31c-5.38,2.9-13.84-33.85-17.36-50.5c-1.01-4.82-1.62-7.95-1.62-7.95s17.91-0.59,24.33,18.38
					C460.98,360.7,460.79,371.47,458.52,379.1z"/>
				<path style="clip-path:url(#SVGID_00000170239036947075035110000013645258362777621151_);fill:#FEC1C7;" d="M491.17,278.15
					c0,0,0.56,2.53,0.38,3.82c-0.19,1.3-1.66,4.23-1.53,5.01c0.12,0.79,0.64,2.2,0.25,2.99c-0.39,0.79-0.93,2.08-1.05,3.38
					c-0.11,1.3,1.43,5.98,0,7.92c-1.42,1.96-6.72,5.13-20.11-0.2l-5.67,25.42l-1.61,7.2c0,0,4.42,2.46,5.33,3.63
					c0.91,1.16,17.42,18.43,20.54,21.19c0.69,0.61,2.09,1.71,3.88,3.22c-8.56,2.69-15.71-4.33-21.19-9.04
					c-6.17-5.28-22.92-22.38-30.32-27.14c-4.61-2.96-13.73-2.44-22.53-0.43c11.08-15.58,23.93-58.74,23.93-58.74l43.11-37.4
					c0,0,3.41,12.66,4.34,17.78c0.93,5.13-1.98,11.56,0.82,14.82c2.8,3.26,5.69,7.31,6.4,9.42
					C496.84,273.08,491.17,278.15,491.17,278.15z"/>
				<path style="clip-path:url(#SVGID_00000170239036947075035110000013645258362777621151_);fill:#EA9C36;" d="M482.78,222.71
					c2.67,0.36,4.53,2.88,4.06,5.54c-1.16,6.63-4.4,18.37-13.15,25.42c-12.72,10.25-24.38,12.72-25.44,20.84
					c-1.06,8.13,4.24,16.96-2.47,32.5c-6.71,15.55-26.14,18.37-32.5,27.91c-6.36,9.54-10.35,29.15-9.12,40.89
					c1.22,11.74,5.24,29.41,5.24,29.41s-4.15-7.68-5.27-10.69c-1.13-3.01-5.69-16.07-5.69-16.07s0.79,5.73,1.41,11.41
					c0.22,1.97-2.47,2.74-3.33,0.95c-2.72-5.67-11.44-14.2-14-21.21c-7.78-21.31,17.95-37.43,20.42-46.97s-7.3-23.06-7.16-33.34
					c0.33-25.52,15.03-39.17,18.56-48.36s7.53-22.75,32.5-25.08c15.22-1.42,16.12,0.65,29.55,5.65
					C477.53,221.93,480.3,222.37,482.78,222.71z"/>
				<polygon style="clip-path:url(#SVGID_00000170239036947075035110000013645258362777621151_);fill:#271F44;" points="
					453.13,590.92 453.13,692.73 446.48,772.8 465.7,767.62 509.43,667.27 				"/>
				
					<rect x="545.62" y="362.96" transform="matrix(0.9275 -0.3737 0.3737 0.9275 -96.3955 236.8259)" style="clip-path:url(#SVGID_00000170239036947075035110000013645258362777621151_);fill:#271F44;" width="33.91" height="8.12"/>
				<path style="clip-path:url(#SVGID_00000170239036947075035110000013645258362777621151_);fill:#27872C;" d="M506.68,419.78
					c0,1.85,0.18,4.96,0.44,8.76c-16.14,17.31-35.78,34.96-49.95,36.56c-17.01,1.91-48.86-90.58-48.86-90.58
					c-6.26-21.41,5.08-33.51,20.35-35.61c2.06-0.29,3.98-0.27,5.77,0c3.52,16.65,11.97,53.4,17.36,50.5
					c2.78-1.51,5.23-5.2,6.73-10.31c3.89,17.98,8.72,40.89,8.72,40.89l42.28-26.4C509.58,406.76,506.68,412.35,506.68,419.78z"/>
				<path style="clip-path:url(#SVGID_00000170239036947075035110000013645258362777621151_);fill:#27872C;" d="M171.01,495.13
					c-3.3,5.89-10.06,15.15-20.4,16.34c-15.33,1.75-41.39,3.59-50.37,7.38c-7.06,2.98-13.84,5.16-20.77,2.9v-38.76
					c0.21-0.51,0.41-1.01,0.62-1.48L171.01,495.13z"/>
				<path style="clip-path:url(#SVGID_00000170239036947075035110000013645258362777621151_);fill:#FEC1C7;" d="M407.04,362.86
					c0,0,16.67,96.38,33.77,97.22c28.55,1.4,89.26-57.55,89.26-57.55l20.6-10.17c1.04-0.51,1.9-1.31,2.49-2.31l4.81-8.12l12.03-4.25
					c1.78-0.63,3.25-1.91,4.13-3.58l3.63-6.95c0.26-0.5,0.31-1.08,0.14-1.61l0,0c-0.48-1.53-2.43-1.98-3.54-0.82l-5.9,6.18
					l-16.29-1.12l-8.41-3.55c-1.03-0.44-2.2-0.39-3.2,0.12l-4.9,2.53l-15.39,22.09l-62.31,26.18c0,0-2.76-58.3-3.41-63.15
					c-1.05-7.87-6.69-22.7-21.74-23.05C417.4,330.59,404.27,340.72,407.04,362.86z"/>
				
					<linearGradient id="SVGID_00000070083753156818721350000010945761690122860675_" gradientUnits="userSpaceOnUse" x1="672.0441" y1="767.6183" x2="672.0441" y2="474.0303">
					<stop  offset="0" style="stop-color:#BFCFD3"/>
					<stop  offset="0.5003" style="stop-color:#CFDEE2"/>
					<stop  offset="1" style="stop-color:#DBE8ED"/>
				</linearGradient>
				
					<path style="clip-path:url(#SVGID_00000170239036947075035110000013645258362777621151_);fill:url(#SVGID_00000070083753156818721350000010945761690122860675_);" d="
					M721.12,675.87c0,18.34-23.85,91.74-23.85,91.74H636.1c0-13.46,15.29-84.4,15.29-92.96s4.29-12.85,0-19.57
					c-4.28-6.74,5.92-24.86,5.92-24.86s-32.82-82.79-35.27-96.25c-1.41-7.74-0.39-21.3,0.73-31.43c0.17-1.51,0.34-2.94,0.5-4.26
					c0.65-5.25,1.22-8.82,1.22-8.82l8.72-1.62l71.63-13.28l2.84-0.53c0,0,0.03,0.16,0.1,0.47c0.54,2.67,3.36,16.42,6.37,31.62
					c2.63,13.14,5.38,27.35,6.99,36.42C724.78,563.34,721.12,657.53,721.12,675.87z"/>
				<path style="clip-path:url(#SVGID_00000170239036947075035110000013645258362777621151_);fill:#BFCFD3;" d="M714.13,506.11
					c-11.84-1.84-32.46-5.01-39.24-5.82c-9.73-1.16-34.83,5.75-43.47,5.48c-4.74-0.16-7.31-1.78-8.66-3.23
					c-1.12-1.2-1.42-2.25-1.42-2.25l1.92-2.02l9.94-10.44l11.45-12.04l60.17-1.24l2.94-0.07
					C708.3,477.17,711.11,490.91,714.13,506.11z"/>
				<path style="clip-path:url(#SVGID_00000170239036947075035110000013645258362777621151_);fill:#C3625B;" d="M678.66,240.87
					c0,0,2.14,3.41,1.92,4.5c-0.21,1.06-1.27,3.62-1.27,3.62s1.71,2.57,1.06,3.85c-0.63,1.27-2.02,5.2-1.48,8.76
					c0.51,3.54,1.06,7.69-2.57,8.54c-2.23,0.53-7.59,0.14-12.68-0.32l-3.87-0.38c-2.45-0.24-4.54,1.72-4.45,4.18l0.53,16.56
					l0.15,4.97l6.21,18.17l-51.52-12.82l5.14-38.9c0,0-0.4-0.64-1.06-1.75c-3.84-6.52-16.89-29.63-15.61-41.86
					c1.48-14.31,5.97-36.33,33.12-36.76c27.15-0.43,34.41,8.97,36.76,13.68c0.64,1.26,1.44,2.84,2.28,4.52
					c2.26,4.52,4.79,9.73,4.79,11.3c0,2.13-0.43,8.76,0,10.46c0.42,1.72,9.19,10.91,9.39,13.47
					C685.7,237.24,678.66,240.87,678.66,240.87z"/>
				
					<linearGradient id="SVGID_00000111155170076484963120000008172515497047176380_" gradientUnits="userSpaceOnUse" x1="657.2964" y1="501.1187" x2="657.2964" y2="283.591">
					<stop  offset="0" style="stop-color:#27872C"/>
					<stop  offset="0.4066" style="stop-color:#2E9C39"/>
					<stop  offset="1" style="stop-color:#38B649"/>
				</linearGradient>
				
					<path style="clip-path:url(#SVGID_00000170239036947075035110000013645258362777621151_);fill:url(#SVGID_00000111155170076484963120000008172515497047176380_);" d="
					M639.14,284.56c0,0-8.46-2.18-14.27,0c-5.81,2.18-9.52,9.05-13.74,13.81c-4.23,4.76-10.57,7.92-11.63,17.18
					c-1.06,9.25,3.17,66.87,5.81,86.43s-1.06,31.78,3.7,42.32c4.76,10.54,5.82,14.77,6.87,21.64c1.06,6.87-4.76,26.96-2.64,30.13
					c2.11,3.17,11.63,6.12,19.03,4.65c7.4-1.48,41.76-13.12,57.09-11.26c7.32,0.89,13.55,1.59,18.07,2.08
					c4.19,0.46,7.84-2.82,7.84-7.04v-50.28c0,0-3.7-72.42-16.92-91.45s-29.07-39.12-29.07-39.12S657.64,290.31,639.14,284.56z"/>
				
					<linearGradient id="SVGID_00000011715967695344819000000016995605884727983271_" gradientUnits="userSpaceOnUse" x1="76.4756" y1="451.8483" x2="202.2266" y2="351.1603">
					<stop  offset="0" style="stop-color:#DBE8ED"/>
					<stop  offset="0.3439" style="stop-color:#E7EFF3"/>
					<stop  offset="0.8395" style="stop-color:#FFFFFF"/>
				</linearGradient>
				
					<path style="clip-path:url(#SVGID_00000170239036947075035110000013645258362777621151_);fill:url(#SVGID_00000011715967695344819000000016995605884727983271_);" d="
					M180.51,336.97l-5.86,122.37c0,0,1.99,29.85-3.48,35.81c-5.47,5.97-17.41,13.94-30.35,13.44c-12.93-0.5-21.38,4.48-31.84,5.47
					c-10.45,1-32.32-10.94-36.31-18.91c-0.83-1.66-0.87-5.68-0.43-11.02c1.67-20.19,10.38-59.11,10.38-59.11s-2.48-22.39-3.98-33.33
					c-1.48-10.94-6.96-38.8,0-57.2c0.08-0.2,0.15-0.41,0.25-0.61c7.74-18.14,53.97-33.72,53.97-33.72
					C186.59,288.23,180.51,336.97,180.51,336.97z"/>
				<path style="clip-path:url(#SVGID_00000170239036947075035110000013645258362777621151_);fill:#E4AEB5;" d="M165.26,284.65
					c0,0-7.96,24.67-8.75,28.65c-0.35,1.74,0.01,4.7,0.53,7.48c1.02,5.49-3.5,10.49-9.04,9.8c-0.08-0.01-0.17-0.02-0.25-0.03
					c-7.69-1.06-30.7-19.17-30.7-19.17l12.02-33.08L165.26,284.65z"/>
				
					<linearGradient id="SVGID_00000140702244723322555990000017436131450810318261_" gradientUnits="userSpaceOnUse" x1="72.2385" y1="408.4653" x2="111.9593" y2="408.4653">
					<stop  offset="0" style="stop-color:#BFCFD3"/>
					<stop  offset="0.5003" style="stop-color:#CFDEE2"/>
					<stop  offset="1" style="stop-color:#DBE8ED"/>
				</linearGradient>
				
					<path style="opacity:0.5;clip-path:url(#SVGID_00000170239036947075035110000013645258362777621151_);fill:url(#SVGID_00000140702244723322555990000017436131450810318261_);" d="
					M104.84,382.32l-13.66,18.42l1.48,12.55c3.01,25.59-4.49,51.09-20.43,70.84c1.67-20.19,10.38-59.11,10.38-59.11
					s-2.48-22.39-3.98-33.33c-1.48-10.94-6.96-38.8,0-57.2c0.08-0.2,0.15-0.41,0.25-0.61c18.08-4.22,26.65,4.61,30.7,14.73
					C114.07,359.83,112.04,372.62,104.84,382.32z"/>
				<path style="clip-path:url(#SVGID_00000170239036947075035110000013645258362777621151_);fill:#FEC1C7;" d="M160.93,233.09
					c0,0,5.53,7.3,6.85,12.16s0.44,7.52,2.43,9.29s9.92,7.45,10.26,10.18c0.34,2.73-3.76,4.44-3.76,4.44s1.54,2.05,1.2,4.1
					c-0.34,2.05,1.03,2.9,0.51,4.78s1.92,7.01,2.07,9.74c0.15,2.73-2.07,7.52-6,8.03c-3.93,0.51-24.95,2.73-29.05,0.85
					c-4.1-1.88-25.12-17.26-25.12-17.26l6.49-39.64L160.93,233.09z"/>
				<path style="clip-path:url(#SVGID_00000170239036947075035110000013645258362777621151_);fill:#FEC1C7;" d="M68.79,401.95
					l-17.28,16.73l44.97,85.71l-10.15,9.73c0,0-67.58-72.9-68.5-89.93s33.66-54.11,33.66-54.11L68.79,401.95z"/>
				
					<linearGradient id="SVGID_00000134947095034139527840000015174742492870860432_" gradientUnits="userSpaceOnUse" x1="36.9381" y1="373.2129" x2="114.3075" y2="373.2129">
					<stop  offset="0" style="stop-color:#DBE8ED"/>
					<stop  offset="0.4096" style="stop-color:#E7EFF3"/>
					<stop  offset="1" style="stop-color:#FFFFFF"/>
				</linearGradient>
				
					<path style="clip-path:url(#SVGID_00000170239036947075035110000013645258362777621151_);fill:url(#SVGID_00000134947095034139527840000015174742492870860432_);" d="
					M82.53,328.24l-45.59,56.38c0,0,2.22,8.48,9.37,17.36c3.37,4.19,11.51,7.02,14.26,11.77c1.23,2.12,6.19,2.8,7.09,4.9
					l36.23-39.05c8.5-8.58,12.33-20.95,9.5-32.69C110.71,335.83,102.93,325.45,82.53,328.24z"/>
				<path style="clip-path:url(#SVGID_00000170239036947075035110000013645258362777621151_);fill:#271F44;" d="M107.89,217.23
					c9.84-6.1,24.42-7.8,30.86-5.77c6.44,2.03,16.96-0.48,23.4,2.47c6.44,2.95,8.82,14.48,5.43,21.61s-7.8,8.48-13.23,12.89
					c-5.43,4.41-12.21,4.75-10.85,11.87s5.09,13.9-1.7,20.69c-6.78,6.78-14.24,4.41-14.58,12.21c-0.34,7.8-13.57,13.9-19.33,12.89
					s-4.75-7.46-9.84-8.48c-5.09-1.02-15.26-6.44-13.9-11.87s7.46-12.89,6.44-19.67c-1.02-6.78-9.06-7.8-6.57-11.87
					c2.5-4.07,7.25-3.05,6.23-8.48c-1.02-5.43-5.43-10.85-1.02-13.57c4.41-2.71,10.17-3.05,10.17-6.1
					C99.41,223,107.89,217.23,107.89,217.23z"/>
				<path style="clip-path:url(#SVGID_00000170239036947075035110000013645258362777621151_);fill:#FEC1C7;" d="M96.48,504.39
					l21.38,2.68l8.48,11.09l-1.95,2.34l-7.89-5.3c0,0-10.84,4.31-19.1,18.11l-11.08-19.2L96.48,504.39z"/>
				<g style="clip-path:url(#SVGID_00000170239036947075035110000013645258362777621151_);">
					<defs>
						<path id="SVGID_00000074407236910118359650000003065680451076763815_" d="M639.14,284.56c0,0-8.46-2.18-14.27,0
							c-5.81,2.18-9.52,9.05-13.74,13.81c-4.23,4.76-10.57,7.92-11.63,17.18c-1.06,9.25,3.17,66.87,5.81,86.43
							s-1.06,31.78,3.7,42.32c4.76,10.54,5.82,14.77,6.87,21.64c1.06,6.87-4.76,26.96-2.64,30.13c2.11,3.17,11.63,6.12,19.03,4.65
							c7.4-1.48,41.76-13.12,57.09-11.26c6.04,0.73,11.33,1.34,15.54,1.81c5.53,0.61,10.36-3.72,10.36-9.28v-47.76
							c0,0-3.7-72.42-16.92-91.45s-29.07-39.12-29.07-39.12S657.64,290.31,639.14,284.56z"/>
					</defs>
					<clipPath id="SVGID_00000127002713583388468830000016904560247784447906_">
						<use xlink:href="#SVGID_00000074407236910118359650000003065680451076763815_"  style="overflow:visible;"/>
					</clipPath>
					
						<linearGradient id="SVGID_00000157275796419866418670000008213747530659954320_" gradientUnits="userSpaceOnUse" x1="655.5781" y1="463.6276" x2="655.5781" y2="336.3168">
						<stop  offset="0" style="stop-color:#38B649"/>
						<stop  offset="0.7551" style="stop-color:#52CD60"/>
						<stop  offset="1" style="stop-color:#5CD668"/>
					</linearGradient>
					
						<path style="clip-path:url(#SVGID_00000127002713583388468830000016904560247784447906_);fill:url(#SVGID_00000157275796419866418670000008213747530659954320_);" d="
						M722.75,340.66H588.41v-4.34h134.34V340.66z M722.75,367.06H588.41v4.34h134.34V367.06z M722.75,397.8H588.41v4.34h134.34
						V397.8z M722.75,428.54H588.41v4.34h134.34V428.54z M722.75,459.28H588.41v4.34h134.34V459.28z"/>
					<path style="opacity:0.8;clip-path:url(#SVGID_00000127002713583388468830000016904560247784447906_);fill:#27872C;" d="
						M621.21,349.95c12.27,19.81,55.14,65.26,59.89,71.45s14.15,19.78,20.41,22.09s17.86,7.18,20.79,4.95
						c2.93-2.23,9.36-4.99,10-10.59c0.46-4.05,5.92-9.37-1.86-24.06s-16.77-25.69-27.93-40.24c-11.17-14.55-23.6-49.39-33.75-58.82
						c-10.16-9.43-32.09-19.53-44.66-3.38S616.12,341.72,621.21,349.95z"/>
				</g>
				<path style="clip-path:url(#SVGID_00000170239036947075035110000013645258362777621151_);fill:#27872C;" d="M707.18,369.68
					c0,0,13.01-1.49,17.76,3.25c4.74,4.74,2.9,11.6,5.01,13.97c2.11,2.37,9.22,14.49,0,24.51l-29.52-26.88L707.18,369.68z"/>
				
					<linearGradient id="SVGID_00000116230212077289663380000009774833002846358460_" gradientUnits="userSpaceOnUse" x1="672.0709" y1="294.2745" x2="672.0709" y2="434.2169">
					<stop  offset="0" style="stop-color:#38B649"/>
					<stop  offset="0.5934" style="stop-color:#2E9C39"/>
					<stop  offset="1" style="stop-color:#27872C"/>
				</linearGradient>
				
					<path style="clip-path:url(#SVGID_00000170239036947075035110000013645258362777621151_);fill:url(#SVGID_00000116230212077289663380000009774833002846358460_);" d="
					M615.87,342.86c13.73,18.83,59.9,60.92,65.1,66.73c5.2,5.81,15.6,18.65,22.02,20.49c6.42,1.83,18.35,5.81,21.1,3.36
					c2.75-2.45,8.96-5.68,9.17-11.32c0.16-4.07,5.2-9.79-3.67-23.85c-8.87-14.07-18.65-24.35-30.89-38.02s-27.25-47.47-38.09-56.1
					c-10.84-8.63-33.47-17.05-44.79,0C604.52,321.21,610.17,335.04,615.87,342.86z"/>
				<g style="clip-path:url(#SVGID_00000170239036947075035110000013645258362777621151_);">
					<defs>
						<path id="SVGID_00000039842591809754372760000012474826702292040372_" d="M615.87,342.86c13.73,18.83,59.9,60.92,65.1,66.73
							c5.2,5.81,15.6,18.65,22.02,20.49c6.42,1.83,18.35,5.81,21.1,3.36c2.75-2.45,8.96-5.68,9.17-11.32
							c0.16-4.07,5.2-9.79-3.67-23.85c-8.87-14.07-18.65-24.35-30.89-38.02s-27.25-47.47-38.09-56.1
							c-10.84-8.63-33.47-17.05-44.79,0C604.52,321.21,610.17,335.04,615.87,342.86z"/>
					</defs>
					<clipPath id="SVGID_00000076574655520487896880000010598899632592153490_">
						<use xlink:href="#SVGID_00000039842591809754372760000012474826702292040372_"  style="overflow:visible;"/>
					</clipPath>
					
						<linearGradient id="SVGID_00000129883952942238040280000000971961643345950644_" gradientUnits="userSpaceOnUse" x1="630.8342" y1="419.062" x2="691.9294" y2="340.471">
						<stop  offset="0" style="stop-color:#38B649"/>
						<stop  offset="0.7551" style="stop-color:#52CD60"/>
						<stop  offset="1" style="stop-color:#5CD668"/>
					</linearGradient>
					
						<path style="clip-path:url(#SVGID_00000076574655520487896880000010598899632592153490_);fill:url(#SVGID_00000129883952942238040280000000971961643345950644_);" d="
						M700.97,274.05l-113,72.64l-2.35-3.65l113-72.64L700.97,274.05z M715.25,296.25l-113,72.64l2.35,3.65l113-72.64L715.25,296.25z
						 M731.87,322.11l-113,72.64l2.35,3.65l113-72.64L731.87,322.11z M748.5,347.97l-113,72.64l2.35,3.65l113-72.64L748.5,347.97z
						 M765.12,373.83l-113,72.64l2.35,3.65l113-72.64L765.12,373.83z"/>
				</g>
				<path style="clip-path:url(#SVGID_00000170239036947075035110000013645258362777621151_);fill:#271F44;" d="M671.31,199.44
					l-0.11,0.06c0,0-9.25-3.61-11.35,0.07c-2.11,3.68,1.71,5.89-0.56,11.15c-2.28,5.26-7.28,6.02-8.32,10.41
					c-0.57,2.38-0.84,6.95-0.97,10.61c-0.11,3.32-2.24,6.24-5.37,7.36l-5.36,1.91c-7.73,2.75-14.45,7.76-19.31,14.37l-4.14,5.64
					l-1.05-1.16c-3.85-6.52-16.9-29.63-15.62-41.85c1.49-14.32,5.98-36.34,33.13-36.76c27.15-0.43,34.41,8.98,36.76,13.68
					C669.67,196.19,670.47,197.76,671.31,199.44z"/>
				<path style="clip-path:url(#SVGID_00000170239036947075035110000013645258362777621151_);fill:#C3625B;" d="M647.66,234.79
					c0-3.09-0.83-6.14-2.55-8.71c-2.28-3.43-5.96-6.88-10.5-3.72c-7.77,5.41,1.22,21.19,6.22,23.14c4.99,1.94,6.82-2.39,6.82-2.39
					V234.79z"/>
				<path style="clip-path:url(#SVGID_00000170239036947075035110000013645258362777621151_);fill:#E4AEB5;" d="M469.11,301.07
					l-5.67,25.42c-1.76-4.35-0.71-9.64,0.84-13.16c2.16-4.86-6.66-10.99-9.21-14.32c-2.54-3.32-1.56-6.26-1.56-6.26
					C459.2,296.86,469.11,301.07,469.11,301.07z"/>
				<path style="clip-path:url(#SVGID_00000170239036947075035110000013645258362777621151_);fill:#AD4B49;" d="M655.3,273.63
					l0.53,16.56c-4.12-3.15-6.59-8.65-6.6-11.58c0-4.61-12.23-9.76-14.05-12.77c-1.83-3.01,4.43-17.56,4.43-17.56
					s3.95,12.77,5.37,15.96c1.42,3.19,14.77,5.21,14.77,5.21C657.31,269.21,655.22,271.17,655.3,273.63z"/>
				<g style="clip-path:url(#SVGID_00000170239036947075035110000013645258362777621151_);">
					
						<linearGradient id="SVGID_00000157306728442450443580000008426914844829785247_" gradientUnits="userSpaceOnUse" x1="203.0989" y1="748.6755" x2="203.0989" y2="560.4027">
						<stop  offset="0" style="stop-color:#BFCFD3"/>
						<stop  offset="1" style="stop-color:#AABEC1"/>
					</linearGradient>
					<path style="fill:url(#SVGID_00000157306728442450443580000008426914844829785247_);" d="M208.74,748.68h-11.28
						c-1.98,0-3.58-1.6-3.58-3.58V563.98c0-1.98,1.6-3.58,3.58-3.58h11.28c1.98,0,3.58,1.6,3.58,3.58V745.1
						C212.32,747.07,210.72,748.68,208.74,748.68z"/>
					
						<linearGradient id="SVGID_00000011007402127740264540000007154360662690207121_" gradientUnits="userSpaceOnUse" x1="575.768" y1="748.6755" x2="575.768" y2="560.4027">
						<stop  offset="0" style="stop-color:#BFCFD3"/>
						<stop  offset="1" style="stop-color:#AABEC1"/>
					</linearGradient>
					<path style="fill:url(#SVGID_00000011007402127740264540000007154360662690207121_);" d="M581.41,748.68h-11.28
						c-1.98,0-3.58-1.6-3.58-3.58V563.98c0-1.98,1.6-3.58,3.58-3.58h11.28c1.98,0,3.58,1.6,3.58,3.58V745.1
						C584.99,747.07,583.38,748.68,581.41,748.68z"/>
				</g>
				<polygon style="clip-path:url(#SVGID_00000170239036947075035110000013645258362777621151_);fill:#27872C;" points="
					161.43,558.73 79.56,558.73 79.56,553.64 161.66,553.64 				"/>
				<polygon style="clip-path:url(#SVGID_00000170239036947075035110000013645258362777621151_);fill:#AABEC1;" points="
					338.9,558.73 246.03,558.73 246.06,553.64 338.26,553.64 				"/>
				<polygon style="clip-path:url(#SVGID_00000170239036947075035110000013645258362777621151_);fill:#AABEC1;" points="
					722.34,558.73 630.12,558.73 628.22,553.64 722.12,553.64 				"/>
				<g style="clip-path:url(#SVGID_00000170239036947075035110000013645258362777621151_);">
					<path class="st31" d="M336.8,585.99c-3.18-3.44-14.28-5.88-18.04-4.36s-9.63,4.17-11.34,9.29
						c-1.71,5.12-13.65,45.67-13.65,45.67v4.06c0,2.05,1.66,3.71,3.71,3.71h54.95c2.56,0,4.37-2.51,3.54-4.94
						C351.28,625.63,338.25,587.56,336.8,585.99z"/>
					<path class="st32" d="M373.13,683.39c1.52-5.47-5.34-30.68-7.62-34.02c-2.29-3.34-22.21-70.09-31.64-71.38
						c-9.43-1.29-23.26,1.52-23.26,1.52s-4.19,2.73-6.86,10.63c-2.67,7.9-17.16,55.59-17.16,55.59l-0.11,0.71
						c3.74,0.3,7.33,1.74,10.09,4.3c1.16,1.07,2.09,2.26,2.39,3.48c1.01,4.04-1.01,13.4,3.03,18.2c4.04,4.8,13.97-0.98,27.99,3.22
						c10.83,3.24,35.4-1.55,33.97-9.54c-0.06-0.26-0.12-0.47-0.17-0.64c-0.04-0.12-0.07-0.24-0.12-0.37c0,0,0.05,0.13,0.12,0.37
						c0.07,0.21,0.13,0.43,0.17,0.64c0.91,3.86,1.85,17.34-30.83,13.74c-23.31-2.57-49.81-1.18-47.06,14.32
						c0.87,4.89,9.86,2.02,10.36,8.09c0.31,3.68-2.45,8.19-2.75,12.3c9.11,1.14,29.05,2.4,41.7,1.34
						c14.49-1.21,41.17-9.42,41.55-14.28C377.33,696.75,371.61,688.85,373.13,683.39z M352.43,644.36h-54.95
						c-2.05,0-3.71-1.66-3.71-3.71v-4.06c0,0,11.94-40.56,13.65-45.67c1.71-5.12,7.58-7.77,11.34-9.29s14.86,0.92,18.04,4.36
						c1.45,1.57,14.48,39.64,19.17,53.43C356.79,641.85,354.99,644.36,352.43,644.36z"/>
					<path class="st33" d="M363.97,666.09c-0.04-0.21-0.1-0.42-0.17-0.64C363.84,665.62,363.9,665.83,363.97,666.09z"/>
					<path class="st33" d="M296.44,702.24c-0.51-6.07-9.49-3.2-10.36-8.09c-2.75-15.5,23.75-16.9,47.06-14.32
						c32.67,3.61,31.73-9.88,30.83-13.74c1.43,8-23.14,12.78-33.97,9.54c-14.03-4.19-23.95,1.59-27.99-3.22
						c-4.04-4.8-2.02-14.15-3.03-18.2c-0.3-1.21-1.24-2.4-2.39-3.48c-2.76-2.56-6.35-4-10.09-4.3l-4.08,26.61
						c0,0-2.29,27.64-1.91,28.55c0.38,0.91,3.56,11.24,9.97,12.45c0.81,0.15,1.9,0.32,3.22,0.48
						C293.99,710.43,296.75,705.92,296.44,702.24z"/>
					<path class="st33" d="M363.79,665.46c-0.07-0.24-0.12-0.37-0.12-0.37C363.72,665.21,363.75,665.33,363.79,665.46z"/>
				</g>
				<path style="clip-path:url(#SVGID_00000170239036947075035110000013645258362777621151_);fill:#FDC1A2;" d="M266.17,437.9v18.37
					c0,1.93,0.34,3.84,1,5.65l34.23,94.03l17.03-2.71l-22.45-98.7l1.59-31.56L266.17,437.9z"/>
				
					<linearGradient id="SVGID_00000140704204142343219810000009265768168192848771_" gradientUnits="userSpaceOnUse" x1="293.1939" y1="421.5369" x2="257.4067" y2="324.1229">
					<stop  offset="0" style="stop-color:#BFCFD3"/>
					<stop  offset="0.5003" style="stop-color:#CFDEE2"/>
					<stop  offset="1" style="stop-color:#DBE8ED"/>
				</linearGradient>
				
					<path style="clip-path:url(#SVGID_00000170239036947075035110000013645258362777621151_);fill:url(#SVGID_00000140704204142343219810000009265768168192848771_);" d="
					M253.12,356.43l8.1,81.94c0.19,1.97,1.58,3.6,3.49,4.12c3.23,0.88,8.72,1.98,15.62,1.79c11.28-0.31,19.11-1.79,19.11-6.38
					c0-4.59-1.88-6.47-1.88-14.93s5.82-51.64,5.95-68.93c0.08-10.05-2.45-29.77-25.2-31.33
					C255.58,321.14,252.29,347.97,253.12,356.43z"/>
				<polygon style="clip-path:url(#SVGID_00000170239036947075035110000013645258362777621151_);fill:#FDC1A2;" points="
					318.42,553.24 335.52,578.7 333.07,596.51 326.97,596.51 312.82,593.72 303.52,581.49 301.39,555.95 313.17,548.67 				"/>
			</g>
			
				<linearGradient id="SVGID_00000121249031230442139130000011551908876749317028_" gradientUnits="userSpaceOnUse" x1="5" y1="543.461" x2="795" y2="543.461">
				<stop  offset="0" style="stop-color:#38B649;stop-opacity:0"/>
				<stop  offset="0.0639" style="stop-color:#38B649;stop-opacity:0.1413"/>
				<stop  offset="0.4524" style="stop-color:#38B649"/>
				<stop  offset="0.9226" style="stop-color:#38B649;stop-opacity:0.1413"/>
				<stop  offset="1" style="stop-color:#38B649;stop-opacity:0"/>
			</linearGradient>
			
				<rect x="5" y="533.28" style="fill:url(#SVGID_00000121249031230442139130000011551908876749317028_);" width="790" height="20.36"/>
			<rect x="182.53" y="528.9" class="st36" width="41.15" height="29.13"/>
			
				<linearGradient id="SVGID_00000035494941795347230610000007348166773238931862_" gradientUnits="userSpaceOnUse" x1="203.0989" y1="566.0075" x2="203.0989" y2="524.6699">
				<stop  offset="0" style="stop-color:#BFCFD3"/>
				<stop  offset="1" style="stop-color:#AABEC1"/>
			</linearGradient>
			<path style="fill:url(#SVGID_00000035494941795347230610000007348166773238931862_);" d="M214.76,566.01h-23.32
				c-1.13,0-2.04-0.92-2.04-2.04v-37.25c0-1.13,0.92-2.04,2.04-2.04h23.32c1.13,0,2.04,0.92,2.04,2.04v37.25
				C216.8,565.09,215.89,566.01,214.76,566.01z"/>
			<rect x="555.19" y="528.9" class="st36" width="41.15" height="29.13"/>
			
				<linearGradient id="SVGID_00000031891023663363331790000013563953266113213576_" gradientUnits="userSpaceOnUse" x1="575.768" y1="566.0075" x2="575.768" y2="524.6699">
				<stop  offset="0" style="stop-color:#BFCFD3"/>
				<stop  offset="1" style="stop-color:#AABEC1"/>
			</linearGradient>
			<path style="fill:url(#SVGID_00000031891023663363331790000013563953266113213576_);" d="M587.43,566.01h-23.32
				c-1.13,0-2.04-0.92-2.04-2.04v-37.25c0-1.13,0.92-2.04,2.04-2.04h23.32c1.13,0,2.04,0.92,2.04,2.04v37.25
				C589.47,565.09,588.55,566.01,587.43,566.01z"/>
		</g>
		<g>
			
				<linearGradient id="SVGID_00000074424044503001291610000004432605948487661198_" gradientUnits="userSpaceOnUse" x1="365.1475" y1="105.916" x2="440.0323" y2="105.916">
				<stop  offset="0" style="stop-color:#5CD668"/>
				<stop  offset="0.2449" style="stop-color:#52CD60"/>
				<stop  offset="1" style="stop-color:#38B649"/>
			</linearGradient>
			<path style="fill:url(#SVGID_00000074424044503001291610000004432605948487661198_);" d="M438.16,100.42
				c1.01,0.08,1.88-0.72,1.88-1.73V85.92c0-0.96-0.78-1.73-1.73-1.73h-71.41c-0.96,0-1.73,0.78-1.73,1.73v12.77
				c0,1.01,0.86,1.8,1.88,1.73c3.23-0.24,5.93,2.32,5.93,5.5c0,3.18-2.7,5.74-5.93,5.5c-1.01-0.08-1.88,0.72-1.88,1.73v12.77
				c0,0.96,0.78,1.73,1.73,1.73l18.14,0h53.27c0.96,0,1.73-0.78,1.73-1.73v-12.77c0-1.01-0.86-1.8-1.88-1.73
				c-3.23,0.24-5.93-2.32-5.93-5.5C432.23,102.74,434.93,100.18,438.16,100.42z"/>
			<circle class="st40" cx="415.41" cy="81.81" r="17.65"/>
			<g>
				<path class="st41" d="M415.41,101.43c-10.82,0-19.62-8.8-19.62-19.63s8.8-19.63,19.62-19.63c10.82,0,19.62,8.8,19.62,19.63
					S426.23,101.43,415.41,101.43z M415.41,66.13c-8.65,0-15.68,7.03-15.68,15.68s7.03,15.68,15.68,15.68
					c8.65,0,15.68-7.03,15.68-15.68S424.06,66.13,415.41,66.13z"/>
			</g>
			<g>
				<path class="st41" d="M421.04,88.76c-0.97,0.95-2.38,1.54-4.22,1.77v1.51c0,0.67-0.55,1.22-1.22,1.22l0,0
					c-0.67,0-1.22-0.55-1.22-1.22V90.6c-1.2-0.07-2.35-0.28-3.43-0.63c-0.46-0.15-0.89-0.32-1.28-0.5
					c-0.79-0.37-1.12-1.34-0.76-2.14l0,0c0.38-0.84,1.37-1.18,2.2-0.8c0.23,0.1,0.46,0.2,0.71,0.29c0.83,0.31,1.68,0.5,2.56,0.58
					v-4.07c-1.15-0.28-2.13-0.58-2.92-0.93c-0.8-0.34-1.46-0.84-2-1.5c-0.54-0.66-0.8-1.53-0.8-2.62c0-1.35,0.49-2.5,1.47-3.47
					c0.98-0.97,2.4-1.56,4.25-1.77v-1.49c0-0.67,0.55-1.22,1.22-1.22l0,0c0.67,0,1.22,0.55,1.22,1.22v1.44
					c1.31,0.11,2.48,0.36,3.49,0.75c0.83,0.33,1.24,1.27,0.9,2.1l-0.03,0.06c-0.34,0.83-1.28,1.19-2.11,0.86
					c-0.74-0.29-1.49-0.47-2.25-0.56v4.14c1.14,0.26,2.1,0.56,2.89,0.89c0.79,0.33,1.45,0.83,1.99,1.49c0.54,0.66,0.8,1.52,0.8,2.59
					C422.5,86.67,422.01,87.81,421.04,88.76z M412.99,79.05c0.31,0.28,0.77,0.52,1.4,0.71V76.3c-0.62,0.15-1.07,0.38-1.36,0.69
					c-0.27,0.29-0.41,0.62-0.44,1C412.56,78.38,412.7,78.79,412.99,79.05z M418.14,86.68c0.29-0.29,0.44-0.64,0.44-1.05
					c0-0.41-0.15-0.74-0.45-1c-0.3-0.26-0.74-0.49-1.3-0.68v3.36C417.41,87.18,417.85,86.97,418.14,86.68z"/>
			</g>
		</g>
		<g>
			<g>
				
					<linearGradient id="SVGID_00000008856223530909919460000017244387997009922964_" gradientUnits="userSpaceOnUse" x1="530.2203" y1="110.8443" x2="611.6214" y2="110.8443">
					<stop  offset="0" style="stop-color:#5CD668"/>
					<stop  offset="0.3918" style="stop-color:#A1E7A8;stop-opacity:0.6082"/>
					<stop  offset="0.8055" style="stop-color:#E4F8E6;stop-opacity:0.1945"/>
					<stop  offset="1" style="stop-color:#FFFFFF;stop-opacity:0"/>
				</linearGradient>
				<path style="fill:url(#SVGID_00000008856223530909919460000017244387997009922964_);" d="M609.58,104.87
					c1.1,0.08,2.04-0.78,2.04-1.88V89.11c0-1.04-0.84-1.89-1.89-1.89h-77.63c-1.04,0-1.89,0.84-1.89,1.89v13.88
					c0,1.1,0.94,1.96,2.04,1.88c3.51-0.26,6.45,2.52,6.45,5.97c0,3.45-2.94,6.23-6.45,5.97c-1.1-0.08-2.04,0.78-2.04,1.88v13.88
					c0,1.04,0.84,1.89,1.89,1.89l19.72,0h57.91c1.04,0,1.89-0.84,1.89-1.89V118.7c0-1.1-0.94-1.96-2.04-1.88
					c-3.51,0.26-6.45-2.52-6.45-5.97S606.07,104.61,609.58,104.87z"/>
				<circle class="st40" cx="584.86" cy="84.64" r="19.19"/>
				<g>
					<path class="st41" d="M584.86,105.97c-11.76,0-21.33-9.57-21.33-21.33s9.57-21.33,21.33-21.33s21.33,9.57,21.33,21.33
						S596.62,105.97,584.86,105.97z M584.86,67.59c-9.4,0-17.04,7.65-17.04,17.05s7.65,17.05,17.04,17.05s17.04-7.65,17.04-17.05
						S594.26,67.59,584.86,67.59z"/>
				</g>
				<g>
					<path class="st41" d="M590.98,92.2c-1.06,1.03-2.59,1.67-4.58,1.92v1.64c0,0.73-0.59,1.32-1.32,1.32l0,0
						c-0.73,0-1.32-0.59-1.32-1.32V94.2c-1.31-0.07-2.55-0.3-3.73-0.69c-0.51-0.17-0.97-0.35-1.39-0.55
						c-0.86-0.41-1.22-1.45-0.82-2.32l0,0c0.41-0.91,1.48-1.29,2.39-0.87c0.25,0.11,0.5,0.22,0.77,0.32
						c0.9,0.34,1.83,0.55,2.78,0.64v-4.42c-1.25-0.3-2.31-0.64-3.18-1.01c-0.87-0.37-1.59-0.91-2.17-1.63
						c-0.58-0.71-0.87-1.66-0.87-2.85c0-1.46,0.53-2.72,1.6-3.77c1.07-1.05,2.61-1.69,4.62-1.92v-1.62c0-0.73,0.59-1.32,1.32-1.32
						l0,0c0.73,0,1.32,0.59,1.32,1.32v1.56c1.43,0.12,2.69,0.39,3.79,0.82c0.91,0.35,1.35,1.38,0.98,2.28l-0.03,0.07
						c-0.37,0.9-1.39,1.29-2.3,0.94c-0.81-0.31-1.62-0.51-2.45-0.61v4.5c1.24,0.28,2.28,0.6,3.14,0.97c0.86,0.36,1.58,0.9,2.16,1.62
						c0.58,0.71,0.87,1.65,0.87,2.82C592.56,89.92,592.04,91.16,590.98,92.2z M582.23,81.64c0.34,0.31,0.84,0.56,1.52,0.77v-3.76
						c-0.67,0.16-1.17,0.41-1.48,0.75c-0.29,0.31-0.45,0.67-0.47,1.08C581.76,80.91,581.91,81.36,582.23,81.64z M587.82,89.93
						c0.32-0.32,0.48-0.7,0.48-1.14c0-0.44-0.16-0.8-0.49-1.09c-0.33-0.28-0.8-0.53-1.42-0.74v3.65
						C587.03,90.48,587.51,90.25,587.82,89.93z"/>
				</g>
			</g>
			<g>
				
					<linearGradient id="SVGID_00000047026396131852863910000008839910765034499213_" gradientUnits="userSpaceOnUse" x1="188.3786" y1="110.8443" x2="269.7797" y2="110.8443">
					<stop  offset="0" style="stop-color:#FFFFFF;stop-opacity:0"/>
					<stop  offset="0.4883" style="stop-color:#97D9A0;stop-opacity:0.4883"/>
					<stop  offset="0.8375" style="stop-color:#53C061;stop-opacity:0.8375"/>
					<stop  offset="1" style="stop-color:#38B649"/>
				</linearGradient>
				<path style="fill:url(#SVGID_00000047026396131852863910000008839910765034499213_);" d="M267.74,104.87
					c1.1,0.08,2.04-0.78,2.04-1.88V89.11c0-1.04-0.84-1.89-1.89-1.89h-77.63c-1.04,0-1.89,0.84-1.89,1.89v13.88
					c0,1.1,0.94,1.96,2.04,1.88c3.51-0.26,6.45,2.52,6.45,5.97c0,3.45-2.94,6.23-6.45,5.97c-1.1-0.08-2.04,0.78-2.04,1.88v13.88
					c0,1.04,0.84,1.89,1.89,1.89l19.72,0h57.91c1.04,0,1.89-0.84,1.89-1.89V118.7c0-1.1-0.94-1.96-2.04-1.88
					c-3.51,0.26-6.45-2.52-6.45-5.97S264.23,104.61,267.74,104.87z"/>
				<circle class="st40" cx="243.02" cy="84.64" r="19.19"/>
				<g>
					<path class="st41" d="M243.02,105.97c-11.76,0-21.33-9.57-21.33-21.33s9.57-21.33,21.33-21.33s21.33,9.57,21.33,21.33
						S254.78,105.97,243.02,105.97z M243.02,67.59c-9.4,0-17.04,7.65-17.04,17.05s7.65,17.05,17.04,17.05s17.04-7.65,17.04-17.05
						S252.41,67.59,243.02,67.59z"/>
				</g>
				<g>
					<path class="st41" d="M249.13,92.2c-1.06,1.03-2.59,1.67-4.58,1.92v1.64c0,0.73-0.59,1.32-1.32,1.32l0,0
						c-0.73,0-1.32-0.59-1.32-1.32V94.2c-1.31-0.07-2.55-0.3-3.73-0.69c-0.51-0.17-0.97-0.35-1.39-0.55
						c-0.86-0.41-1.22-1.45-0.82-2.32l0,0c0.41-0.91,1.48-1.29,2.39-0.87c0.25,0.11,0.5,0.22,0.77,0.32
						c0.9,0.34,1.83,0.55,2.78,0.64v-4.42c-1.25-0.3-2.31-0.64-3.18-1.01c-0.87-0.37-1.59-0.91-2.17-1.63
						c-0.58-0.71-0.87-1.66-0.87-2.85c0-1.46,0.53-2.72,1.6-3.77c1.07-1.05,2.61-1.69,4.62-1.92v-1.62c0-0.73,0.59-1.32,1.32-1.32
						l0,0c0.73,0,1.32,0.59,1.32,1.32v1.56c1.43,0.12,2.69,0.39,3.79,0.82c0.91,0.35,1.35,1.38,0.98,2.28l-0.03,0.07
						c-0.37,0.9-1.39,1.29-2.3,0.94c-0.81-0.31-1.62-0.51-2.45-0.61v4.5c1.24,0.28,2.28,0.6,3.14,0.97c0.86,0.36,1.58,0.9,2.16,1.62
						c0.58,0.71,0.87,1.65,0.87,2.82C250.72,89.92,250.19,91.16,249.13,92.2z M240.39,81.64c0.34,0.31,0.84,0.56,1.52,0.77v-3.76
						c-0.67,0.16-1.17,0.41-1.48,0.75c-0.29,0.31-0.45,0.67-0.47,1.08C239.92,80.91,240.07,81.36,240.39,81.64z M245.98,89.93
						c0.32-0.32,0.48-0.7,0.48-1.14c0-0.44-0.16-0.8-0.49-1.09c-0.33-0.28-0.8-0.53-1.42-0.74v3.65
						C245.19,90.48,245.67,90.25,245.98,89.93z"/>
				</g>
			</g>
		</g>
		<g>
			
				<linearGradient id="SVGID_00000017485334192694756190000008458820202263230879_" gradientUnits="userSpaceOnUse" x1="361.0634" y1="141.3137" x2="319.4526" y2="181.0862">
				<stop  offset="0" style="stop-color:#DBE8ED"/>
				<stop  offset="1" style="stop-color:#BFCFD3"/>
			</linearGradient>
			<path style="fill:url(#SVGID_00000017485334192694756190000008458820202263230879_);" d="M370.2,142.97l-3.51,3.35l-3.76,3.59
				l-37.62,35.92c-2.99,2.86-7.74,2.75-10.59-0.24c-1.35-1.41-2.04-3.21-2.08-5.01c-0.04-2.03,0.74-4.07,2.32-5.58l37.92-36.19
				l3.73-3.57l3.59-3.44c0.03,0.05,0.06,0.09,0.09,0.14c1.64,2.47,3.52,4.82,5.64,7.04C367.29,140.4,368.71,141.74,370.2,142.97z"/>
		</g>
		<g>
			
				<linearGradient id="SVGID_00000008119184344778183910000012791190748669290399_" gradientUnits="userSpaceOnUse" x1="368.8465" y1="159.8609" x2="452.6852" y2="69.0467" gradientTransform="matrix(0.0215 0.9998 -0.9998 0.0215 523.895 -296.7561)">
				<stop  offset="0" style="stop-color:#BFCFD3"/>
				<stop  offset="1" style="stop-color:#DBE8ED"/>
			</linearGradient>
			<path style="fill:url(#SVGID_00000008119184344778183910000012791190748669290399_);" d="M448.09,60.54
				c-11.4-11.94-26.77-18.73-43.27-19.11c-16.5-0.38-32.16,5.69-44.1,17.09c-13.05,12.46-19.44,29.3-19.08,46.05
				c0.26,12.01,3.99,23.98,11.24,34.24c0.03,0.04,0.06,0.09,0.09,0.13c1.71,2.42,3.62,4.74,5.73,6.95c1.35,1.42,2.76,2.77,4.23,4.02
				c0.04,0.04,0.08,0.08,0.12,0.11c10.82,9.37,24.43,14.64,38.91,14.97c16.51,0.38,32.17-5.69,44.11-17.08
				C470.71,124.37,471.62,85.18,448.09,60.54z M439.16,140.67c-10.01,9.56-23.13,14.64-36.96,14.33
				c-11.82-0.27-22.94-4.46-31.88-11.92c-0.04-0.03-0.08-0.07-0.12-0.11c-1.49-1.23-2.91-2.57-4.27-3.99
				c-2.12-2.22-4-4.57-5.64-7.04c-0.03-0.05-0.06-0.09-0.09-0.14c-13.59-20.5-10.97-48.48,7.42-66.05
				c10.01-9.55,23.14-14.64,36.97-14.32c13.83,0.32,26.71,6.01,36.26,16.01c9.29,9.73,14.03,22.15,14.3,34.64
				C455.45,116.12,450.09,130.23,439.16,140.67z"/>
		</g>
	</g>
</g>
</svg>
