<svg enable-background="new 0 0 800 800" viewBox="0 0 800 800" xmlns="http://www.w3.org/2000/svg" xmlns:xlink="http://www.w3.org/1999/xlink"><linearGradient id="a" gradientUnits="userSpaceOnUse" x1="399.6968" x2="399.6968" y1="739.8231" y2="98.4653"><stop offset="0" stop-color="#bfcfd3"/><stop offset=".5003" stop-color="#cfdee2"/><stop offset="1" stop-color="#dbe8ed"/></linearGradient><linearGradient id="b"><stop offset="0" stop-color="#dbe8ed"/><stop offset=".4997" stop-color="#cfdee2"/><stop offset="1" stop-color="#bfcfd3"/></linearGradient><linearGradient id="c" gradientUnits="userSpaceOnUse" x1="589.1356" x2="589.1356" xlink:href="#b" y1="376.8804" y2="-107.9594"/><clipPath id="d"><path d="m782.79 385.95c-.02.67-.05 1.34-.08 2.01-.03.6-.05 1.2-.08 1.79-.09 1.81-.19 3.63-.29 5.45-.01.17-.02.33-.04.5-.1 1.83-.21 3.67-.34 5.5-.23 3.44-.49 6.89-.79 10.35-.17 1.97-.35 3.95-.54 5.92-.08.87-.17 1.73-.26 2.6v.08c-.03.26-.05.51-.09.77-.06.61-.11 1.22-.18 1.82-.14 1.3-.28 2.6-.43 3.9-.14 1.32-.3 2.63-.46 3.94 0 .07-.01.15-.02.22-.37 3.06-.76 6.11-1.19 9.15-.01.09-.02.17-.04.25-.44 3.23-.92 6.46-1.44 9.67-.49 3.13-1.02 6.25-1.58 9.36-.03.18-.07.37-.1.55-.47 2.61-.96 5.2-1.47 7.79-.05.27-.11.55-.16.82-.52 2.58-1.06 5.15-1.62 7.7-.29 1.35-.59 2.7-.9 4.04-.59 2.62-1.22 5.22-1.86 7.81-.34 1.4-.7 2.8-1.06 4.19-.34 1.31-.69 2.62-1.05 3.92-.1.41-.21.83-.33 1.24-.24.89-.48 1.78-.74 2.66-.18.68-.38 1.37-.58 2.05-.11.38-.22.75-.33 1.13-.37 1.25-.73 2.5-1.11 3.74-.17.55-.33 1.11-.51 1.66-.37 1.2-.74 2.4-1.13 3.6-.33 1.06-.68 2.11-1.03 3.16-.22.68-.45 1.36-.68 2.03-.19.58-.39 1.16-.59 1.74-.2.57-.39 1.14-.59 1.71-1.7 4.89-3.51 9.7-5.43 14.42-.46 1.15-.93 2.28-1.41 3.41-.47 1.14-.95 2.26-1.44 3.38-.39.91-.78 1.81-1.19 2.7-1.12 2.5-2.26 4.97-3.44 7.4-.43.88-.86 1.76-1.29 2.62-1.86 3.74-3.8 7.41-5.82 10.99-.28.49-.56.98-.84 1.47-.32.56-.64 1.13-.97 1.68-.53.92-1.08 1.84-1.64 2.75-.56.94-1.13 1.87-1.71 2.8-.52.84-1.04 1.67-1.57 2.49-1.4 2.18-2.84 4.32-4.31 6.43h-332.56v-425.76c29.31-31.5 66.11-59.08 136.02-59.08 1.52 0 3.03.01 4.54.02.8.01 1.6.02 2.39.03.99.01 1.98.03 2.96.05 2.95.05 5.87.14 8.76.25 1.21.04 2.41.1 3.61.15 1.45.07 2.89.14 4.32.23 1.14.06 2.28.13 3.41.21.66.04 1.31.08 1.96.13.77.05 1.54.11 2.31.17.71.05 1.41.11 2.11.17.16.01.33.02.49.04.87.07 1.73.14 2.59.22 1.56.14 3.11.29 4.65.45.91.09 1.82.19 2.72.29.65.07 1.3.15 1.95.23.11.01.22.02.33.04.96.11 1.91.23 2.86.35 1.51.19 3.02.39 4.51.61 1.05.14 2.09.3 3.13.46 1.08.16 2.15.33 3.22.51.51.08 1.03.17 1.54.25.06.01.11.02.16.03 1.18.2 2.36.41 3.54.63 1.96.36 3.91.74 5.83 1.14.5.1 1 .2 1.5.31.88.18 1.75.37 2.62.57.73.16 1.46.33 2.19.5.92.21 1.84.43 2.75.65.86.21 1.72.43 2.57.65.38.09.75.19 1.12.29.86.22 1.7.45 2.55.68.02 0 .05.01.07.02.51.14 1.01.28 1.51.42.85.23 1.7.48 2.54.73.51.15 1.02.3 1.53.46.57.17 1.13.34 1.69.51.4.12.78.25 1.17.37 1 .32 2 .64 2.99.97.94.31 1.87.63 2.8.96.28.1.56.19.84.29 1.06.37 2.11.76 3.15 1.15 1.14.42 2.27.85 3.39 1.3.99.38 1.97.78 2.94 1.18.26.11.52.22.78.33.81.33 1.61.67 2.4 1.02 2.38 1.03 4.73 2.11 7.04 3.23 1.91.92 3.79 1.87 5.65 2.86 7.45 3.94 14.56 8.39 21.33 13.37.85.62 1.69 1.25 2.53 1.89.83.64 1.66 1.29 2.49 1.94.82.66 1.65 1.32 2.46 2 .82.67 1.63 1.35 2.43 2.04.81.69 1.61 1.39 2.4 2.1 1.59 1.42 3.16 2.87 4.71 4.36.77.74 1.54 1.49 2.3 2.26.65.64 1.3 1.3 1.93 1.96 2.39 2.44 4.72 4.98 6.99 7.61.72.83 1.44 1.68 2.15 2.53 1.51 1.8 3 3.65 4.46 5.54.61.79 1.22 1.58 1.82 2.39.69.92 1.38 1.85 2.06 2.79.66.92 1.32 1.84 1.97 2.78.52.73 1.03 1.48 1.54 2.23.27.4.54.8.81 1.2 1.26 1.87 2.5 3.78 3.71 5.74.56.88 1.11 1.77 1.65 2.67.62 1.03 1.24 2.06 1.85 3.11.61 1.04 1.22 2.1 1.82 3.17.53.93 1.05 1.86 1.57 2.81.11.2.23.41.34.62.55 1.02 1.1 2.05 1.65 3.09.58 1.1 1.16 2.22 1.73 3.35.41.81.82 1.62 1.22 2.44.31.59.6 1.19.89 1.79.88 1.8 1.74 3.63 2.59 5.48 1.2 2.61 2.38 5.27 3.53 7.98.49 1.14.97 2.28 1.44 3.44.06.13.11.26.16.4.46 1.1.91 2.22 1.35 3.34.56 1.38 1.1 2.78 1.64 4.2.5 1.3.99 2.6 1.47 3.92.36.97.72 1.95 1.06 2.93.23.61.44 1.23.66 1.85.71 1.99 1.4 4.01 2.08 6.05.3.9.61 1.81.9 2.73 1.02 3.11 2.01 6.27 2.97 9.49.29.93.57 1.87.84 2.82.7 2.38 1.39 4.79 2.06 7.24.21.76.42 1.52.62 2.28.26.97.52 1.94.78 2.92.4 1.52.8 3.05 1.19 4.6.38 1.5.76 3.01 1.13 4.54.01.04.02.08.03.13.38 1.56.76 3.14 1.13 4.73.5 2.1.98 4.21 1.45 6.35.26 1.15.51 2.3.76 3.46s.5 2.32.74 3.49c.19.89.38 1.78.56 2.67.6 2.89 1.18 5.82 1.74 8.79.33 1.71.65 3.43.97 5.17.6 3.25 1.16 6.56 1.69 9.92.23 1.43.45 2.88.66 4.33.2 1.37.4 2.75.59 4.13.19 1.39.38 2.78.56 4.18.08.63.16 1.25.24 1.88.26 2.1.51 4.21.74 6.34.09.76.17 1.52.25 2.28.17 1.58.33 3.18.48 4.78.15 1.53.29 3.07.42 4.62.12 1.37.24 2.75.34 4.13.13 1.59.24 3.19.35 4.8.2 2.97.38 5.96.53 8.98.04.74.07 1.48.1 2.22z"/></clipPath><linearGradient id="e"><stop offset="0" stop-color="#bfcfd3"/><stop offset="1" stop-color="#bfcfd3" stop-opacity="0"/></linearGradient><linearGradient id="f" gradientUnits="userSpaceOnUse" x1="479.1237" x2="884.4141" xlink:href="#e" y1="437.8384" y2="437.8384"/><linearGradient id="g" gradientUnits="userSpaceOnUse" x1="458.0537" x2="880.7339" xlink:href="#e" y1="474.7084" y2="474.7084"/><linearGradient id="h" gradientUnits="userSpaceOnUse" x1="479.1237" x2="881.8037" y1="465.1934" y2="465.1934"><stop offset="0" stop-color="#a2b8bc"/><stop offset=".9615" stop-color="#a2b8bc" stop-opacity=".0385"/><stop offset="1" stop-color="#a2b8bc" stop-opacity="0"/></linearGradient><linearGradient id="i"><stop offset="0" stop-color="#a2b8bc"/><stop offset="1" stop-color="#a2b8bc" stop-opacity="0"/></linearGradient><linearGradient id="j" gradientUnits="userSpaceOnUse" x1="458.0537" x2="879.4438" xlink:href="#i" y1="484.2234" y2="484.2234"/><linearGradient id="k" gradientUnits="userSpaceOnUse" x1="443.5239" x2="896.0137" xlink:href="#e" y1="493.9934" y2="493.9934"/><linearGradient id="l" gradientUnits="userSpaceOnUse" x1="464.5937" x2="876.1938" xlink:href="#i" y1="503.5084" y2="503.5084"/><linearGradient id="m"><stop offset="0" stop-color="#a2b8bc" stop-opacity="0"/><stop offset=".0385" stop-color="#a2b8bc" stop-opacity=".0385"/><stop offset="1" stop-color="#a2b8bc"/></linearGradient><linearGradient id="n" gradientUnits="userSpaceOnUse" x1="635.8774" x2="635.8774" xlink:href="#m" y1="417.5503" y2="387.4965"/><linearGradient id="o" gradientUnits="userSpaceOnUse" x1="664.3682" x2="664.3682" xlink:href="#m" y1="414.3221" y2="387.4965"/><linearGradient id="p" gradientUnits="userSpaceOnUse" x1="691.68" x2="691.68" xlink:href="#m" y1="414.3221" y2="387.4965"/><linearGradient id="q" gradientUnits="userSpaceOnUse" x1="717.8351" x2="717.8351" xlink:href="#m" y1="414.3221" y2="387.4965"/><linearGradient id="r" gradientUnits="userSpaceOnUse" x1="745.3134" x2="745.3134" xlink:href="#m" y1="414.3221" y2="387.4965"/><linearGradient id="s" gradientUnits="userSpaceOnUse" x1="770.409" x2="770.409" xlink:href="#m" y1="414.3221" y2="387.4965"/><linearGradient id="t"><stop offset="0" stop-color="#bfcfd3"/><stop offset="1" stop-color="#aabec1"/></linearGradient><linearGradient id="u" gradientUnits="userSpaceOnUse" x1="659.1498" x2="659.1498" xlink:href="#t" y1="441.9958" y2="437.663"/><linearGradient id="v" gradientUnits="userSpaceOnUse" x1="656.1677" x2="656.1677" xlink:href="#t" y1="437.9348" y2="397.3657"/><linearGradient id="w" gradientUnits="userSpaceOnUse" x1="626.9835" x2="626.9835" xlink:href="#t" y1="446.7083" y2="442.3754"/><linearGradient id="x" gradientUnits="userSpaceOnUse" x1="624.0014" x2="624.0014" xlink:href="#t" y1="442.6472" y2="402.0781"/><linearGradient id="y" gradientUnits="userSpaceOnUse" x1="676.147" x2="676.147" xlink:href="#t" y1="436.0066" y2="395.2923"/><linearGradient id="z" gradientUnits="userSpaceOnUse" x1="703.9832" x2="703.9832" xlink:href="#t" y1="436.0066" y2="395.2923"/><linearGradient id="A" gradientUnits="userSpaceOnUse" x1="760.0282" x2="760.0282" xlink:href="#t" y1="436.0066" y2="395.2923"/><linearGradient id="B" gradientUnits="userSpaceOnUse" x1="787.6253" x2="787.6253" xlink:href="#t" y1="436.0066" y2="395.2923"/><linearGradient id="C" gradientUnits="userSpaceOnUse" x1="732.2642" x2="732.2642" xlink:href="#m" y1="454.0836" y2="391.7726"/><linearGradient id="D"><stop offset="0" stop-color="#27872c"/><stop offset=".1522" stop-color="#429646"/><stop offset=".4795" stop-color="#87bc89"/><stop offset=".9536" stop-color="#f4f9f4"/><stop offset="1" stop-color="#fff"/></linearGradient><linearGradient id="E" gradientUnits="userSpaceOnUse" x1="503.9847" x2="623.7526" xlink:href="#D" y1="540.3224" y2="540.3224"/><linearGradient id="F"><stop offset="0" stop-color="#a2b8bc"/><stop offset=".2196" stop-color="#a6bbbf" stop-opacity=".7804"/><stop offset=".4234" stop-color="#b1c3c7" stop-opacity=".5766"/><stop offset=".6211" stop-color="#c4d2d4" stop-opacity=".3789"/><stop offset=".8137" stop-color="#dee6e7" stop-opacity=".1863"/><stop offset="1" stop-color="#fff" stop-opacity="0"/></linearGradient><linearGradient id="G" gradientUnits="userSpaceOnUse" x1="760.8804" x2="761.9805" xlink:href="#F" y1="550.4984" y2="550.4984"/><linearGradient id="H" gradientUnits="userSpaceOnUse" x1="761.9805" x2="763.2803" xlink:href="#F" y1="546.9584" y2="546.9584"/><linearGradient id="I" gradientUnits="userSpaceOnUse" x1="679.676" x2="765.8204" xlink:href="#D" y1="543.4592" y2="543.4592"/><linearGradient id="J" gradientUnits="userSpaceOnUse" x1="28.8986" x2="124.5236" y1="536.433" y2="594.924"><stop offset="0" stop-color="#fff"/><stop offset=".4569" stop-color="#fcd9a3"/><stop offset=".8277" stop-color="#f9bc5e"/><stop offset="1" stop-color="#f8b143"/></linearGradient><linearGradient id="K" gradientUnits="userSpaceOnUse" x1="177.0307" x2="214.5425" y1="504.38" y2="504.38"><stop offset="0" stop-color="#fff"/><stop offset=".002895474" stop-color="#fdfefd"/><stop offset=".0617" stop-color="#d0e5d1"/><stop offset=".1244" stop-color="#a9cfab"/><stop offset=".1934" stop-color="#85bb88"/><stop offset=".2682" stop-color="#68ab6b"/><stop offset=".3505" stop-color="#509e54"/><stop offset=".4436" stop-color="#3e9442"/><stop offset=".5539" stop-color="#318c35"/><stop offset=".6975" stop-color="#29882e"/><stop offset="1" stop-color="#27872c"/></linearGradient><linearGradient id="L" gradientUnits="userSpaceOnUse" x1="172.8224" x2="145.854" xlink:href="#D" y1="558.5443" y2="505.3789"/><linearGradient id="M" gradientUnits="userSpaceOnUse" x1="722.7305" x2="764.5406" xlink:href="#F" y1="571.9384" y2="571.9384"/><linearGradient id="N" gradientUnits="userSpaceOnUse" x1="599.7887" x2="674.446" y1="602.303" y2="497.023"><stop offset="0" stop-color="#f8b143"/><stop offset=".1723" stop-color="#f9bc5e"/><stop offset=".5431" stop-color="#fcd9a3"/><stop offset="1" stop-color="#fff"/></linearGradient><linearGradient id="O" gradientUnits="userSpaceOnUse" x1="627.5005" x2="627.5005" y1="727.1352" y2="565.8151"><stop offset="0" stop-color="#fff"/><stop offset=".285" stop-color="#ecf1f2"/><stop offset="1" stop-color="#bfcfd3"/></linearGradient><linearGradient id="P"><stop offset="0" stop-color="#fff"/><stop offset=".0161" stop-color="#fafbfc"/><stop offset=".1025" stop-color="#e4ebed"/><stop offset=".2046" stop-color="#d3dee1"/><stop offset=".3309" stop-color="#c8d5d9"/><stop offset=".5081" stop-color="#c1d0d4"/><stop offset="1" stop-color="#bfcfd3"/></linearGradient><linearGradient id="Q" gradientUnits="userSpaceOnUse" x1="195.7866" x2="195.7866" xlink:href="#P" y1="637.4954" y2="555.8737"/><linearGradient id="R" gradientUnits="userSpaceOnUse" x1="63.7854" x2="63.7854" xlink:href="#P" y1="632.2683" y2="525.4267"/><linearGradient id="S" gradientUnits="userSpaceOnUse" x1="456.9464" x2="456.9464" y1="726.881" y2="504.5346"><stop offset="0" stop-color="#27872c"/><stop offset=".4066" stop-color="#2e9c39"/><stop offset="1" stop-color="#38b649"/></linearGradient><linearGradient id="T" gradientUnits="userSpaceOnUse" x1="520.5306" x2="520.5306" y1="739.8264" y2="593.0976"><stop offset="0" stop-color="#fff"/><stop offset=".1063" stop-color="#ecf1f2"/><stop offset=".2573" stop-color="#d8e2e4"/><stop offset=".4298" stop-color="#cad7da"/><stop offset=".6407" stop-color="#c1d1d5"/><stop offset="1" stop-color="#bfcfd3"/></linearGradient><linearGradient id="U" gradientUnits="userSpaceOnUse" x1="272.8524" x2="379.3878" y1="487.1632" y2="487.1632"><stop offset=".1605" stop-color="#fff"/><stop offset=".6561" stop-color="#e7eff3"/><stop offset="1" stop-color="#dbe8ed"/></linearGradient><linearGradient id="V" gradientUnits="userSpaceOnUse" x1="134.7561" x2="134.7561" xlink:href="#b" y1="312.145" y2="309.145"/><linearGradient id="W" gradientUnits="userSpaceOnUse" x1="323.2045" x2="323.2045" xlink:href="#b" y1="617.445" y2="614.445"/><linearGradient id="X" gradientUnits="userSpaceOnUse" x1="380.2901" x2="380.2901" y1="681.0695" y2="470.2551"><stop offset="0" stop-color="#dbe8ed"/><stop offset=".3425" stop-color="#e7eff3"/><stop offset=".8362" stop-color="#fff"/></linearGradient><linearGradient id="Y" gradientUnits="userSpaceOnUse" x1="213.2624" x2="239.7318" y1="722.6286" y2="601.3434"><stop offset="0" stop-color="#fff"/><stop offset=".2144" stop-color="#e9eef0"/><stop offset=".4987" stop-color="#d2dde0"/><stop offset=".7668" stop-color="#c4d3d6"/><stop offset="1" stop-color="#bfcfd3"/></linearGradient><linearGradient id="Z" gradientUnits="userSpaceOnUse" x1="641.8101" x2="737.4503" xlink:href="#F" y1="634.7533" y2="634.7533"/><linearGradient id="aa" gradientUnits="userSpaceOnUse" x1="662.5667" x2="713.9451" y1="621.8048" y2="644.1002"><stop offset="0" stop-color="#bfcfd3"/><stop offset=".336" stop-color="#d1dcdf"/><stop offset="1" stop-color="#fff"/></linearGradient><linearGradient id="ab" gradientUnits="userSpaceOnUse" x1="593.7817" x2="593.7817" xlink:href="#P" y1="295.301" y2="292.301"/><linearGradient id="ac" gradientUnits="userSpaceOnUse" x1="342.6613" x2="342.6613" y1="283.9235" y2="64.5458"><stop offset=".1638" stop-color="#fff"/><stop offset=".6575" stop-color="#e7eff3"/><stop offset="1" stop-color="#dbe8ed"/></linearGradient><linearGradient id="ad" gradientUnits="userSpaceOnUse" x1="291.4875" x2="409.0087" y1="145.355" y2="211.677"><stop offset="0" stop-color="#fff"/><stop offset="1" stop-color="#dbe8ed"/></linearGradient><path d="m783.26 417.48c-.02 1.36-.04 2.73-.08 4.1-.03 1.19-.06 2.37-.1 3.56-.02.59-.03 1.17-.05 1.76-.02.56-.04 1.13-.07 1.7-.02.59-.04 1.18-.07 1.77 0 .23-.01.47-.03.7-.04.96-.08 1.92-.13 2.89-.04.98-.09 1.97-.15 2.96-.03.6-.06 1.2-.1 1.79-.1 1.81-.22 3.63-.35 5.45-.01.17-.02.33-.04.5-.12 1.83-.26 3.67-.41 5.5-.44 5.41-.97 10.84-1.61 16.27-.1.87-.2 1.73-.31 2.6 0 .02 0 .05-.01.08-.1.86-.21 1.73-.32 2.59-.17 1.3-.34 2.6-.52 3.9-.18 1.39-.38 2.78-.58 4.16-1.42 9.72-3.16 19.4-5.25 28.98-.57 2.61-1.15 5.2-1.78 7.79-.06.27-.13.55-.19.82-.63 2.58-1.28 5.15-1.95 7.7-.36 1.35-.72 2.7-1.09 4.04-1.11 4.03-2.28 8.03-3.53 12-.54 1.73-1.1 3.45-1.66 5.16-.52 1.58-1.05 3.14-1.6 4.71-.57 1.63-1.14 3.25-1.74 4.87-.54 1.49-1.09 2.97-1.66 4.44-.77 2.02-1.56 4.02-2.38 6.01-.34.87-.7 1.74-1.07 2.6-2.16 5.18-4.46 10.28-6.91 15.27-.56 1.15-1.13 2.28-1.7 3.41-.57 1.14-1.15 2.26-1.74 3.38-.47.91-.95 1.81-1.44 2.7-1.35 2.5-2.73 4.97-4.16 7.4-.34.59-.68 1.17-1.03 1.75-.17.29-.35.58-.52.87-2.25 3.74-4.59 7.41-7.03 10.99-.34.49-.67.98-1.01 1.47-.39.56-.78 1.13-1.18 1.68-.64.92-1.3 1.84-1.97 2.75-.68.94-1.37 1.87-2.07 2.8-.63.84-1.26 1.67-1.9 2.49-1.69 2.18-3.43 4.32-5.2 6.43-13.45 15.97-29.25 29.77-47.67 40.62-4.43 2.61-8.82 5.13-13.19 7.58-4.65 2.6-9.28 5.12-13.9 7.54-2.6 1.36-5.2 2.7-7.8 4-31.23 15.72-62.38 27.34-97.99 35.13-18.88 4.14-39.02 7.2-61.09 9.23-26.63 2.45-52.93 3.62-78.64 3.44-13.28-.08-26.39-.52-39.32-1.33-103-6.4-194.14-35.73-256.55-91.4-5.11-4.55-10.03-9.28-14.74-14.19-1.44-1.49-2.86-3.01-4.26-4.54-.54-.59-1.07-1.17-1.59-1.76-.13-.15-.26-.29-.39-.44-.66-.73-1.32-1.47-1.98-2.22-14.48-16.6-26.8-35.08-36.62-55.52-2.97-6.18-5.72-12.54-8.23-19.09-1.37-3.57-2.67-7.19-3.9-10.87-1.96-5.87-3.73-11.88-5.32-18.03-35.39-137.24 59.9-273.64 232.91-272.03 23.91.22 42.79-4.77 58.72-13.05 33.41-17.36 53.85-49.19 80.46-77.79 29.31-31.5 66.11-59.08 136.02-59.08 1.52 0 3.03.01 4.54.02.8.01 1.6.02 2.39.03.99.01 1.98.03 2.96.05 2.95.05 5.87.14 8.76.25 1.21.04 2.41.1 3.61.15 1.45.07 2.89.14 4.32.23 1.14.06 2.28.13 3.41.21.66.04 1.31.08 1.96.13.77.05 1.54.11 2.31.17.71.05 1.41.11 2.11.17.16.01.33.02.49.04.87.07 1.73.14 2.59.22 1.56.14 3.11.29 4.65.45.91.09 1.82.19 2.72.29.65.07 1.3.15 1.95.23.11.01.22.02.33.04.96.11 1.91.23 2.86.35 1.51.19 3.02.39 4.51.61 1.05.14 2.09.3 3.13.46 1.08.16 2.15.33 3.22.51.51.08 1.03.17 1.54.25.06.01.11.02.16.03 1.18.2 2.36.41 3.54.63 1.96.36 3.91.74 5.83 1.14.5.1 1 .2 1.5.31.88.18 1.75.37 2.62.57.73.16 1.46.33 2.19.5.92.21 1.84.43 2.75.65.86.21 1.72.43 2.57.65.38.09.75.19 1.12.29.86.22 1.7.45 2.55.68.02 0 .05.01.07.02.51.14 1.01.28 1.51.42.85.23 1.7.48 2.54.73.51.15 1.02.3 1.53.46.57.17 1.13.34 1.69.51.4.12.78.25 1.17.37 1 .32 2 .64 2.99.97.94.31 1.87.63 2.8.96.28.1.56.19.84.29 1.06.37 2.11.76 3.15 1.15 1.14.42 2.27.85 3.39 1.3.99.38 1.97.78 2.94 1.18.26.11.52.22.78.33.81.33 1.61.67 2.4 1.02 2.38 1.03 4.73 2.11 7.04 3.23 1.91.92 3.79 1.87 5.65 2.86 7.45 3.94 14.56 8.39 21.33 13.37.85.62 1.69 1.25 2.53 1.89.83.64 1.66 1.29 2.49 1.94.82.66 1.65 1.32 2.46 2 .82.67 1.63 1.35 2.43 2.04.81.69 1.61 1.39 2.4 2.1 1.59 1.42 3.16 2.87 4.71 4.36.77.74 1.54 1.49 2.3 2.26.65.64 1.3 1.3 1.93 1.96 2.39 2.44 4.72 4.98 6.99 7.61.72.83 1.44 1.68 2.15 2.53 1.51 1.8 3 3.65 4.46 5.54.61.79 1.22 1.58 1.82 2.39.69.92 1.38 1.85 2.06 2.79.66.92 1.32 1.84 1.97 2.78.52.73 1.03 1.48 1.54 2.23.27.4.54.8.81 1.2 1.26 1.87 2.5 3.78 3.71 5.74.56.88 1.11 1.77 1.65 2.67.62 1.03 1.24 2.06 1.85 3.11.61 1.04 1.22 2.1 1.82 3.17.53.93 1.05 1.86 1.57 2.81.11.2.23.41.34.62.55 1.02 1.1 2.05 1.65 3.09.58 1.1 1.16 2.22 1.73 3.35.41.81.82 1.62 1.22 2.44.31.59.6 1.19.89 1.79.88 1.8 1.74 3.63 2.59 5.48 1.2 2.61 2.38 5.27 3.53 7.98.49 1.14.97 2.28 1.44 3.44.06.13.11.26.16.4.46 1.1.91 2.22 1.35 3.34.56 1.38 1.1 2.78 1.64 4.2.5 1.3.99 2.6 1.47 3.92.36.97.72 1.95 1.06 2.93.23.61.44 1.23.66 1.85.71 1.99 1.4 4.01 2.08 6.05.3.9.61 1.81.9 2.73 1.02 3.11 2.01 6.27 2.97 9.49.29.93.57 1.87.84 2.82.7 2.38 1.39 4.79 2.06 7.24.21.76.42 1.52.62 2.28.26.97.52 1.94.78 2.92.4 1.52.8 3.05 1.19 4.6.38 1.5.76 3.01 1.13 4.54.01.04.02.08.03.13.38 1.56.76 3.14 1.13 4.73.5 2.1.98 4.21 1.45 6.35.26 1.15.51 2.3.76 3.46s.5 2.32.74 3.49c.19.89.38 1.78.56 2.67.6 2.89 1.18 5.82 1.74 8.79.33 1.71.65 3.43.97 5.17.6 3.25 1.16 6.56 1.69 9.92.23 1.43.45 2.88.66 4.33.2 1.37.4 2.75.59 4.13.19 1.39.38 2.78.56 4.18.08.63.16 1.25.24 1.88.26 2.1.51 4.21.74 6.34.09.76.17 1.52.25 2.28.17 1.58.33 3.18.48 4.78.15 1.53.29 3.07.42 4.62.12 1.37.24 2.75.34 4.13.13 1.59.24 3.19.35 4.8.2 2.97.38 5.96.53 8.98.04.74.07 1.48.1 2.22.01.06.01.12.01.18.06 1.19.11 2.39.15 3.59.06 1.49.11 2.98.16 4.48v.18c.05 1.63.09 3.26.12 4.9.12 6.01.13 12.08.03 18.2z" fill="url(#a)" opacity=".6"/><path d="m782.79 385.95c-.02.67-.05 1.34-.08 2.01-.03.6-.05 1.2-.08 1.79-.09 1.81-.19 3.63-.29 5.45-.01.17-.02.33-.04.5-.1 1.83-.21 3.67-.34 5.5-.23 3.44-.49 6.89-.79 10.35-.17 1.97-.35 3.95-.54 5.92-.08.87-.17 1.73-.26 2.6v.08c-.03.26-.05.51-.09.77-.06.61-.11 1.22-.18 1.82-.14 1.3-.28 2.6-.43 3.9-.14 1.32-.3 2.63-.46 3.94 0 .07-.01.15-.02.22-.37 3.06-.76 6.11-1.19 9.15-.01.09-.02.17-.04.25-.44 3.23-.92 6.46-1.44 9.67-.49 3.13-1.02 6.25-1.58 9.36-.03.18-.07.37-.1.55-.47 2.61-.96 5.2-1.47 7.79-.05.27-.11.55-.16.82-.52 2.58-1.06 5.15-1.62 7.7-.29 1.35-.59 2.7-.9 4.04-.59 2.62-1.22 5.22-1.86 7.81-.34 1.4-.7 2.8-1.06 4.19-.34 1.31-.69 2.62-1.05 3.92-.1.41-.21.83-.33 1.24-.24.89-.48 1.78-.74 2.66-.18.68-.38 1.37-.58 2.05-.11.38-.22.75-.33 1.13-.37 1.25-.73 2.5-1.11 3.74-.17.55-.33 1.11-.51 1.66-.37 1.2-.74 2.4-1.13 3.6-.33 1.06-.68 2.11-1.03 3.16-.22.68-.45 1.36-.68 2.03-.19.58-.39 1.16-.59 1.74-.2.57-.39 1.14-.59 1.71-1.7 4.89-3.51 9.7-5.43 14.42-.46 1.15-.93 2.28-1.41 3.41-.47 1.14-.95 2.26-1.44 3.38-.39.91-.78 1.81-1.19 2.7-1.12 2.5-2.26 4.97-3.44 7.4-.43.88-.86 1.76-1.29 2.62-1.86 3.74-3.8 7.41-5.82 10.99-.28.49-.56.98-.84 1.47-.32.56-.64 1.13-.97 1.68-.53.92-1.08 1.84-1.64 2.75-.56.94-1.13 1.87-1.71 2.8-.52.84-1.04 1.67-1.57 2.49-1.4 2.18-2.84 4.32-4.31 6.43h-332.56v-425.76c29.31-31.5 66.11-59.08 136.02-59.08 1.52 0 3.03.01 4.54.02.8.01 1.6.02 2.39.03.99.01 1.98.03 2.96.05 2.95.05 5.87.14 8.76.25 1.21.04 2.41.1 3.61.15 1.45.07 2.89.14 4.32.23 1.14.06 2.28.13 3.41.21.66.04 1.31.08 1.96.13.77.05 1.54.11 2.31.17.71.05 1.41.11 2.11.17.16.01.33.02.49.04.87.07 1.73.14 2.59.22 1.56.14 3.11.29 4.65.45.91.09 1.82.19 2.72.29.65.07 1.3.15 1.95.23.11.01.22.02.33.04.96.11 1.91.23 2.86.35 1.51.19 3.02.39 4.51.61 1.05.14 2.09.3 3.13.46 1.08.16 2.15.33 3.22.51.51.08 1.03.17 1.54.25.06.01.11.02.16.03 1.18.2 2.36.41 3.54.63 1.96.36 3.91.74 5.83 1.14.5.1 1 .2 1.5.31.88.18 1.75.37 2.62.57.73.16 1.46.33 2.19.5.92.21 1.84.43 2.75.65.86.21 1.72.43 2.57.65.38.09.75.19 1.12.29.86.22 1.7.45 2.55.68.02 0 .05.01.07.02.51.14 1.01.28 1.51.42.85.23 1.7.48 2.54.73.51.15 1.02.3 1.53.46.57.17 1.13.34 1.69.51.4.12.78.25 1.17.37 1 .32 2 .64 2.99.97.94.31 1.87.63 2.8.96.28.1.56.19.84.29 1.06.37 2.11.76 3.15 1.15 1.14.42 2.27.85 3.39 1.3.99.38 1.97.78 2.94 1.18.26.11.52.22.78.33.81.33 1.61.67 2.4 1.02 2.38 1.03 4.73 2.11 7.04 3.23 1.91.92 3.79 1.87 5.65 2.86 7.45 3.94 14.56 8.39 21.33 13.37.85.62 1.69 1.25 2.53 1.89.83.64 1.66 1.29 2.49 1.94.82.66 1.65 1.32 2.46 2 .82.67 1.63 1.35 2.43 2.04.81.69 1.61 1.39 2.4 2.1 1.59 1.42 3.16 2.87 4.71 4.36.77.74 1.54 1.49 2.3 2.26.65.64 1.3 1.3 1.93 1.96 2.39 2.44 4.72 4.98 6.99 7.61.72.83 1.44 1.68 2.15 2.53 1.51 1.8 3 3.65 4.46 5.54.61.79 1.22 1.58 1.82 2.39.69.92 1.38 1.85 2.06 2.79.66.92 1.32 1.84 1.97 2.78.52.73 1.03 1.48 1.54 2.23.27.4.54.8.81 1.2 1.26 1.87 2.5 3.78 3.71 5.74.56.88 1.11 1.77 1.65 2.67.62 1.03 1.24 2.06 1.85 3.11.61 1.04 1.22 2.1 1.82 3.17.53.93 1.05 1.86 1.57 2.81.11.2.23.41.34.62.55 1.02 1.1 2.05 1.65 3.09.58 1.1 1.16 2.22 1.73 3.35.41.81.82 1.62 1.22 2.44.31.59.6 1.19.89 1.79.88 1.8 1.74 3.63 2.59 5.48 1.2 2.61 2.38 5.27 3.53 7.98.49 1.14.97 2.28 1.44 3.44.06.13.11.26.16.4.46 1.1.91 2.22 1.35 3.34.56 1.38 1.1 2.78 1.64 4.2.5 1.3.99 2.6 1.47 3.92.36.97.72 1.95 1.06 2.93.23.61.44 1.23.66 1.85.71 1.99 1.4 4.01 2.08 6.05.3.9.61 1.81.9 2.73 1.02 3.11 2.01 6.27 2.97 9.49.29.93.57 1.87.84 2.82.7 2.38 1.39 4.79 2.06 7.24.21.76.42 1.52.62 2.28.26.97.52 1.94.78 2.92.4 1.52.8 3.05 1.19 4.6.38 1.5.76 3.01 1.13 4.54.01.04.02.08.03.13.38 1.56.76 3.14 1.13 4.73.5 2.1.98 4.21 1.45 6.35.26 1.15.51 2.3.76 3.46s.5 2.32.74 3.49c.19.89.38 1.78.56 2.67.6 2.89 1.18 5.82 1.74 8.79.33 1.71.65 3.43.97 5.17.6 3.25 1.16 6.56 1.69 9.92.23 1.43.45 2.88.66 4.33.2 1.37.4 2.75.59 4.13.19 1.39.38 2.78.56 4.18.08.63.16 1.25.24 1.88.26 2.1.51 4.21.74 6.34.09.76.17 1.52.25 2.28.17 1.58.33 3.18.48 4.78.15 1.53.29 3.07.42 4.62.12 1.37.24 2.75.34 4.13.13 1.59.24 3.19.35 4.8.2 2.97.38 5.96.53 8.98.04.74.07 1.48.1 2.22z" fill="url(#c)" opacity=".8"/><g clip-path="url(#d)"><path d="m884.41 415.17c0 2.76-.02-.47-.07 2.31-.02 1.36-.04 2.73-.08 4.1-.03 1.19-.06 2.37-.1 3.56-.02.59-.03 1.17-.05 1.76-.02.56-.04 1.13-.07 1.7-.02.59-.04 1.18-.07 1.77 0 .23-.01.47-.03.7-.04.96-.08 1.92-.13 2.89-.04.98-.09 1.97-.15 2.96-.03.6-.06 1.2-.1 1.79-.1 1.81-.22 3.63-.35 5.45-.01.17-.02.33-.04.5-.12 1.83-.26 3.67-.41 5.5-.28 3.44-.6 6.89-.96 10.35h-402.68l84.1-45.34z" fill="url(#f)"/><path d="m880.73 469.88c-.07.61-.14 1.22-.22 1.82-.17 1.3-.34 2.6-.52 3.9-.17 1.32-.36 2.63-.55 3.94h-421.39l21.66-9.66z" fill="url(#g)"/><path d="m881.8 460.51c-.2 1.97-.42 3.95-.65 5.92-.1.87-.2 1.73-.31 2.6 0 .02 0 .05-.01.08-.03.26-.06.51-.1.77h-401.61v-9.37z" fill="url(#h)"/><path d="m879.44 479.54c-.01.07-.02.15-.03.22-.45 3.06-.92 6.11-1.44 9.15h-419.92v-9.37z" fill="url(#j)"/><path d="m896.01 489.16v9.67h-452.49l21.66-9.67z" fill="url(#k)"/><path d="m876.19 498.83c-.6 3.13-1.24 6.25-1.91 9.36h-409.69v-9.36z" fill="url(#l)"/></g><g clip-path="url(#d)" opacity=".5"><path d="m641.92 395.99-.09-.05 5.64-6.47-.83-.73-5.78 6.64-2.54-1.46c.65-.61 1.08-1.45 1.16-2.41.16-2.05-1.37-3.84-3.42-4s-3.84 1.37-4 3.42c-.08 1.07.3 2.07.97 2.81l-2.7 1.35-6.25 7.39s-.82 3.64 5.18 2.48l-1.69 11.64 12.15.95 1.41-11.35c1.73 1.47 4.53 3.49 6.13 2.7 2.42-1.2-5.34-12.91-5.34-12.91z" fill="url(#n)"/><path d="m670.41 395.99-.1-.05 5.64-6.47-.83-.73-5.78 6.64-2.54-1.46c.65-.61 1.08-1.45 1.16-2.41.16-2.05-1.37-3.84-3.42-4s-3.84 1.37-4 3.42c-.08 1.07.3 2.07.97 2.81l-2.7 1.35-6.25 7.39s-.82 3.64 5.18 2.48l-.91 8.41 12.15.95.64-8.12c1.73 1.47 4.53 3.49 6.13 2.7 2.42-1.2-5.34-12.91-5.34-12.91z" fill="url(#o)"/><path d="m697.72 395.99-.09-.05 5.64-6.47-.83-.73-5.78 6.64-2.54-1.46c.65-.61 1.08-1.45 1.16-2.41.16-2.05-1.37-3.84-3.42-4s-3.84 1.37-4 3.42c-.08 1.07.3 2.07.97 2.81l-2.7 1.35-6.25 7.39s-.82 3.64 5.18 2.48l-.91 8.41 12.15.95.64-8.12c1.73 1.47 4.53 3.49 6.13 2.7 2.41-1.2-5.35-12.91-5.35-12.91z" fill="url(#p)"/><path d="m723.88 395.99-.09-.05 5.64-6.47-.83-.73-5.78 6.64-2.54-1.46c.65-.61 1.08-1.45 1.16-2.41.16-2.05-1.37-3.84-3.42-4s-3.84 1.37-4 3.42c-.08 1.07.3 2.07.97 2.81l-2.7 1.35-6.25 7.39s-.82 3.64 5.18 2.48l-.91 8.41 12.15.95.64-8.12c1.73 1.47 4.53 3.49 6.13 2.7 2.41-1.2-5.35-12.91-5.35-12.91z" fill="url(#q)"/><path d="m751.35 395.99-.09-.05 5.64-6.47-.83-.73-5.78 6.64-2.54-1.46c.65-.61 1.08-1.45 1.16-2.41.16-2.05-1.37-3.84-3.42-4s-3.84 1.37-4 3.42c-.08 1.07.3 2.07.97 2.81l-2.7 1.35-6.25 7.39s-.82 3.64 5.18 2.48l-.91 8.41 12.15.95.64-8.12c1.73 1.47 4.53 3.49 6.13 2.7 2.41-1.2-5.35-12.91-5.35-12.91z" fill="url(#r)"/><path d="m776.45 395.99-.09-.05 5.64-6.47-.83-.73-5.78 6.64-2.54-1.46c.65-.61 1.08-1.45 1.16-2.41.16-2.05-1.37-3.84-3.42-4s-3.84 1.37-4 3.42c-.08 1.07.3 2.07.97 2.81l-2.7 1.35-6.25 7.39s-.82 3.64 5.18 2.48l-.91 8.41 12.15.95.64-8.12c1.73 1.47 4.53 3.49 6.13 2.7 2.41-1.2-5.35-12.91-5.35-12.91z" fill="url(#s)"/></g><g clip-path="url(#d)"><path d="m658.26 437.66.05.87 2.39 2.27 2.02.3v.65s-3.11 0-4.06 0-1.49-1.42-1.49-1.42l-.27 1.67h-1.09s-.13-1.02-.21-1.92.42-2.1.42-2.1z" fill="url(#u)"/><path d="m643.45 405.6 1.67-.99-2.28-2.1.43-.27 2.3 2.11 2.27-1.35s-1.52-4.57.8-5.24c2.31-.67 3.43-.36 4.34.23 1.47.95.8 4.16.44 4.13-.14.48-.39 1.24-.72 1.82-.1.18-.2.34-.3.48.22.12.4.25.53.38.99 1 5.49 7.15 5.49 8.33s-1.18 3.69-2.36 3.33c-1.18-.37-1.48-.84-1.48-.84l.77 2.37 2.55 1.78c2.83.46 6.42 1.2 6.95 2.02.89 1.39.96 12.39.96 12.39l-.19.03 1.96 1.85 2.02.3v.65s-3.11 0-4.06 0-1.49-.2-1.49-.2l-.27.44h-1.09s-.13-1.02-.21-1.92c-.02-.2 0-.43.03-.64l-1.87.29.1-8.24-1.1-.35c.5 3.47.54 10.73.54 10.73l-5.18.81.1-8.24-9.16-6.13.04-.06c-.99-.74-1.9-1.6-2.05-2.32-.07-.33-.14-1.14-.2-2.22-.1-.01-.18-.03-.24-.05-.7-.28-.7-12.01-.7-12.01s-.15-.94.66-1.3z" fill="url(#v)"/><path d="m626.09 442.38.05.87 2.39 2.27 2.02.3v.65s-3.11 0-4.06 0-1.49-1.42-1.49-1.42l-.27 1.67h-1.09s-.13-1.02-.21-1.92c-.07-.9.42-2.1.42-2.1z" fill="url(#w)"/><path d="m611.28 410.31 1.67-.99-2.28-2.1.43-.27 2.3 2.11 2.27-1.35s-1.52-4.57.8-5.24c2.31-.67 3.43-.36 4.34.23 1.47.95.8 4.16.44 4.13-.14.48-.39 1.24-.72 1.82-.1.18-.2.34-.3.48.22.12.4.25.53.38.99 1 5.49 7.15 5.49 8.33s-1.18 3.69-2.36 3.33c-1.18-.37-1.48-.84-1.48-.84l.77 2.37 2.55 1.78c2.83.46 6.42 1.2 6.95 2.02.89 1.39.96 12.39.96 12.39l-.19.03 1.96 1.85 2.02.3v.65s-3.11 0-4.06 0-1.49-.2-1.49-.2l-.27.44h-1.09s-.13-1.02-.21-1.92c-.02-.2 0-.43.03-.64l-1.87.29.1-8.24-1.1-.35c.5 3.47.54 10.73.54 10.73l-5.18.81.1-8.24-9.16-6.13.04-.06c-.99-.74-1.9-1.6-2.05-2.32-.07-.33-.14-1.14-.2-2.22-.1-.01-.18-.03-.24-.05-.7-.28-.7-12.01-.7-12.01s-.15-.94.66-1.3z" fill="url(#x)"/><path d="m681.82 403.27-.09-.05 5.3-6.08-.78-.68-5.43 6.24-2.38-1.37c.74-.7 1.19-1.73 1.08-2.88-.14-1.5-1.3-2.78-2.78-3.07-2.09-.42-4.02 1.09-4.18 3.15-.08 1.01.28 1.95.91 2.64l-2.54 1.27-5.87 6.94s-.77 3.42 4.86 2.33l-.42 6.89c-1.22.26-2.05 1.32-1.83 2.47l2.92 14.96h3.26l-1.06-12.27c2.09.83 4.38.91 6.49.24l-1.04 12.03h3.26l2.92-14.96c.26-1.32-.89-2.54-2.41-2.54-.28 0-.54.05-.79.12l-.16-5.78c1.63 1.38 4.26 3.27 5.76 2.53 2.29-1.13-5-12.13-5-12.13z" fill="url(#y)"/><path d="m709.66 403.27-.09-.05 5.3-6.08-.78-.68-5.43 6.24-2.38-1.37c.74-.7 1.19-1.73 1.08-2.88-.14-1.5-1.3-2.78-2.78-3.07-2.09-.42-4.02 1.09-4.18 3.15-.08 1.01.28 1.95.91 2.64l-2.54 1.27-5.87 6.94s-.77 3.42 4.86 2.33l-.42 6.89c-1.22.26-2.05 1.32-1.83 2.47l2.92 14.96h3.26l-1.06-12.27c2.09.83 4.38.91 6.49.24l-1.04 12.03h3.26l2.92-14.96c.26-1.32-.89-2.54-2.41-2.54-.28 0-.54.05-.79.12l-.16-5.78c1.63 1.38 4.26 3.27 5.76 2.53 2.29-1.13-5-12.13-5-12.13z" fill="url(#z)"/><path d="m765.7 403.27-.09-.05 5.3-6.08-.78-.68-5.43 6.24-2.38-1.37c.74-.7 1.19-1.73 1.08-2.88-.14-1.5-1.3-2.78-2.78-3.07-2.09-.42-4.02 1.09-4.18 3.15-.08 1.01.28 1.95.91 2.64l-2.54 1.27-5.87 6.94s-.77 3.42 4.86 2.33l-.42 6.89c-1.22.26-2.05 1.32-1.83 2.47l2.92 14.96h3.26l-1.06-12.27c2.09.83 4.38.91 6.49.24l-1.04 12.03h3.26l2.92-14.96c.26-1.32-.89-2.54-2.41-2.54-.28 0-.54.05-.79.12l-.16-5.78c1.63 1.38 4.26 3.27 5.76 2.53 2.29-1.13-5-12.13-5-12.13z" fill="url(#A)"/><path d="m793.3 403.27-.09-.05 5.3-6.08-.78-.68-5.43 6.24-2.38-1.37c.74-.7 1.19-1.73 1.08-2.88-.14-1.5-1.3-2.78-2.78-3.07-2.09-.42-4.02 1.09-4.18 3.15-.08 1.01.28 1.95.91 2.64l-2.54 1.27-5.87 6.94s-.77 3.42 4.86 2.33l-.42 6.89c-1.22.26-2.05 1.32-1.83 2.47l2.92 14.96h3.26l-1.06-12.27c2.09.83 4.38.91 6.49.24l-1.04 12.03h3.26l2.92-14.96c.26-1.32-.89-2.54-2.41-2.54-.28 0-.54.05-.79.12l-.16-5.78c1.63 1.38 4.26 3.27 5.76 2.53 2.29-1.13-5-12.13-5-12.13z" fill="url(#B)"/></g><path clip-path="url(#d)" d="m748.47 402.6-2.5 7.11s-1.05 1.26-2.04.96c-.52-.17-2.07-.98-3.41-1.71.06.44.11.88.18 1.33.29 2.28 0 18.44 0 18.44-.34.51-1.26 1.44-2.35 2.45v22.9h-5.63l-.43-24.88.08.01-.08-.74-.34 2.46-.38 23.16h-5.63v-23.19c-1.53-1.45-2.77-2.63-2.77-2.63s.67-14.81.85-16.89c.07-.8.17-2.07.28-3.45l-5.45 2.63s-1.2.34-1.95-.23-.19-7.67-.19-7.67.11-.15.35-.36l-.09-.94s.07-.09.18-.21c-.36-.54-1.07-1.6-1.07-1.7 0-.13.21-.18.21-.18s-.02-.34 0-.47c.02-.14.23-.11.23-.11s-.06-.4 0-.57c.05-.18.32-.19.32-.19l.14-1.04s.28-.74.45-.74.15 1.82.15 1.82l.96 1.09s.51-1.09.61-1.25c.09-.15.34-.44.51-.38.18.05-.01.77-.01.77s.02.85 0 1.16c-.01.2-.22.7-.37 1.03.14-.02.22-.02.22-.02v.64c.13-.04.27-.08.41-.11l.15 3.91 4.76-3.78 1.76.11 2.94-.45.3-.41c-.82-.11-1.63-.31-2.02-.7-.97-.97-.76-2-.76-2h1.03l-.38-.87.43-.67-.32-.81.69-.79s.71-2 1.79-2.32 1.99 0 1.99 0 1.09-.67 2.06-.15c.97.53 2.05 2.27 2.05 2.27l.38.98-.76.7.33 1.22.43.92h1.24s-.05 1.49-.86 1.75c-.32.09-1.14.21-2.02.3l.22.58 1.82.47 2.24-.17 4.67 4.03 1.16-4.03s.16.05.41.14l.2-.44s-1.32-.83-1.36-1.13 0-1.11 0-1.11l.43-.25-3.05-6.06.29-.2 2.98 5.18c.07-.15.16-.25.29-.25.45.02.41.4.41.4s.31-.09.51-.04c.21.06.27.31.27.31s.25-.11.37.04c.11.13.18.39.2.44 0-.02.02-.08.18.01.21.11.47 1.17.47 1.45 0 .2-.04 1.04-.06 1.52.46.31.61.77.61.77l-.25.54c.14.07.26.18.34.29z" fill="url(#C)"/><path clip-path="url(#d)" d="m886.34 326.72h-236.67v-166.03h140.92c47.85 23.18 78.45 71.1 94.42 158.24.47 2.55.91 5.15 1.33 7.79z" fill="#fff" opacity=".5"/><path d="m574.12 503.39s-1.41 9.29 1.53 14.12h-18.71s1.49-8 .74-13.06c-.74-5.07 16.44-1.06 16.44-1.06z" fill="#c3625b"/><path d="m565.88 507.77s-13.92-.93-15.22-17.79c-1.02-13.3.24-15.65 14-16.04 13.03-.37 15.57 3.43 15.58 8.04.04 24.35-9.17 24.59-14.36 25.79z" fill="#c3625b"/><path d="m569.41 466.48c5.17 1.45 10.48 6.22 12.55 12.3s-.62 12.65-2.27 14.25-5.77 11.98-13.18 12c-6.86.01-10.35-3.29-11.41-7.29s-4.74-5.41-5.96-9.53-1.68-12.47 3.75-16.94c4.72-3.9 10.64-6.44 16.52-4.79z" fill="#271f44"/><path d="m580.24 490.84s1.61-1.34 2.19.31-3.19 7.12-4.6 5.29c-1.41-1.82 2.41-5.6 2.41-5.6z" fill="#c3625b"/><path d="m551.9 490.84s-1.61-1.34-2.19.31 3.19 7.12 4.6 5.29c1.41-1.82-2.41-5.6-2.41-5.6z" fill="#c3625b"/><path d="m594.71 517.5c-9.11-7.05-36.53-7.98-54.76-1.49-3.62 1.29-7.21 4.63-9.99 13.92-1.35 4.5-16.96 17.87-23.13 23.02-1.6 1.33-2.61 3.24-2.82 5.31-.29 2.85 2.93 10.6 5.8 10.75h113.95l-.76-7.98c-.27-2.77-1.18-5.44-2.67-7.79-5.69-8.94-20.41-31.7-25.62-35.74z" fill="url(#E)"/><path d="m378.73 492.21s1.4 9.19-1.51 13.95h18.49s-1.47-7.91-.74-12.91-16.24-1.04-16.24-1.04z" fill="#fec1c7"/><path d="m394.97 493.26s5.66 2.37 6.94-14.3c1.01-13.14-.23-15.46-13.83-15.85-12.88-.37-15.38 3.39-15.39 7.95-.04 24.06 17.16 21.02 22.28 22.2z" fill="#fec1c7"/><path d="m383.38 455.74c-5.11 1.43-12.4 5.39-12.4 12.15 0 6.34.62 12.5 2.25 14.08s1.15 8.73 8.47 8.75c6.78.01 13.67-4.26 14.72-8.22 1.05-3.95 5.99-1.18 7.01-5.3 2.02-8.13 1.66-12.32-3.7-16.74-4.69-3.84-10.54-6.35-16.35-4.72z" fill="#271f44"/><path d="m372.68 479.81s-1.59-1.32-2.16.31 3.15 7.03 4.55 5.23c1.39-1.8-2.39-5.54-2.39-5.54z" fill="#ffb27d"/><path d="m338.09 533.74v45.34l109.94-2.65c2.83-.14 13.54-11.78 13.25-14.6l-5.82-9.21c-2.62-3.83-8.66-10.11-10.24-11.42-6.1-5.09-21.53-18.3-22.86-22.75-2.75-9.18-6.3-12.48-9.87-13.75-5.28-1.88-11.35-3.13-17.51-3.79-1.3-.14-2.6-.25-3.9-.33-4.16-.27-8.31-.27-12.21-.02-8.84.58-16.48 2.49-20.5 5.6-3.73 2.91-13.22 16.81-20.28 27.58z" fill="#f8b143"/><path d="m389.12 452.08c-1.94.21-3.9.13-5.83-.17-3.77-.59-9.91-.78-12.82 3.32-11.25 15.84 2.59 24.86.52 30.48s-15.58 13.23-12.6 20.45c7.4 17.91 19.93 3.98 32.12-.08 2.35-.78 1.2-13.13-11.37-19.41-3.78-1.89 19.05-5.93 22.77-7.71 5.42-2.6 5.69-7.12 4.85-11.44-1.38-7.04-7.5-16.54-17.64-15.44z" fill="#271f44"/><path d="m395.49 480.31s-.22-2.12 1.48-1.96c4.26.39 4.16 6.52 1.85 7-2.31.47-3.33-5.04-3.33-5.04z" fill="#fec1c7"/><path d="m738.66 510.05s-1 6.56 1.08 9.97h-13.21s1.05-5.65.53-9.22c-.53-3.57 11.6-.75 11.6-.75z" fill="#ffb27d"/><path d="m732.84 513.15s-9.83-.65-10.74-12.56c-.72-9.39.17-11.05 9.88-11.32 9.2-.26 10.99 2.42 11 5.68.02 17.18-6.48 17.35-10.14 18.2z" fill="#e4aeb5"/><path d="m735.33 484c3.65 1.02 8.86 3.85 8.86 8.68 0 4.53-.44 8.93-1.6 10.06s-4.08 8.46-9.3 8.47c-4.84.01-7.31-2.33-8.06-5.15s-3.48-3.79-4.21-6.73c-1.44-5.81-1.19-8.8 2.64-11.96 3.34-2.74 7.52-4.53 11.67-3.37z" fill="#271f44"/><path d="m742.97 501.19s1.14-.94 1.55.22-2.25 5.02-3.25 3.74c-.99-1.29 1.7-3.96 1.7-3.96z" fill="#ffb27d"/><path d="m760.88 552.09c.38-1.06.74-2.12 1.1-3.18-.22.68-.46 1.37-.7 2.05-.13.38-.26.75-.4 1.13z" fill="url(#G)"/><path d="m761.98 548.91c.44-1.29.88-2.59 1.3-3.9-.13.41-.26.83-.4 1.24-.29.89-.59 1.78-.9 2.66z" fill="url(#H)"/><path d="m765.82 536.9c-.41 1.4-.84 2.8-1.28 4.19l-39.79 12.22-1.14 17.73-34.47-.83c-2.02-.1-9.67-8.41-9.46-10.43l4.16-6.57c1.86-2.74 6.18-7.22 7.31-8.16 4.36-3.64 15.38-13.07 16.33-16.25 1.96-6.56 4.5-8.92 7.05-9.83 12.87-4.58 32.23-3.93 38.66 1.05 2.36 1.83 7.9 9.76 12.63 16.88z" fill="url(#I)"/><path d="m733.13 481.76s7.08-1.31 11.43 1.88c4.35 3.2 5.08 8.11 6.56 12.13 1.48 4.01 12.97 11.87 10.35 16.79-5.54 10.41 4.62 4.95 4.34 16.9-.13 5.51-8.49 8.92-17.47 10.99-13.6 3.13-27.7-3.44-33.75-16.01-.5-1.03-.79-1.83-.81-2.29-.11-3.05-.02-7.63 9.34-9 3.84-.56 2.85-10.71-1.02-12.56-3.87-1.86-4.06-5.09-3.46-8.17 1.06-5.46 6.11-12.98 14.49-10.66z" fill="#ea9c36"/><path d="m724.71 500.95s-.6-1.44-1.55-.55-.36 5.81 1.2 5.09c1.56-.73.35-4.54.35-4.54z" fill="#e4aeb5"/><path d="m70.7 506.23s1.88 12.39-2.04 18.82h24.93s-1.98-10.66-.99-17.4c.99-6.76-21.9-1.42-21.9-1.42z" fill="#e4aeb5"/><path d="m81.67 512.07s18.56-1.23 20.28-23.71c1.36-17.72-.31-20.86-18.65-21.38-17.37-.49-20.75 4.57-20.76 10.72-.04 32.45 12.23 32.78 19.13 34.37z" fill="#e4aeb5"/><path d="m62.54 489.5s-2.15-1.78-2.92.42 4.25 9.49 6.13 7.06c1.89-2.44-3.21-7.48-3.21-7.48z" fill="#ffb27d"/><path d="m150.16 636.72c.75 2.51-23.52 8.27-49.74 10.36-5.11-4.55-10.03-9.28-14.74-14.19-1.44-1.49-2.86-3.01-4.26-4.54-.54-.59-1.07-1.17-1.59-1.76-.13-.15-.26-.29-.39-.44-.66-.73-1.32-1.47-1.98-2.22-14.48-16.6-26.8-35.08-36.62-55.52.49-23.08-7.13-33.49 1.05-41.77 10.78-10.92 49.9-11.78 74.35-3.58 12.38 4.16 30.22 101.28 33.92 113.66z" fill="url(#J)"/><path d="m81.12 452.8s-13.37-2.48-21.58 3.56c-8.2 6.04-9.6 15.32-12.39 22.89-2.79 7.58-12.52 9.37-8.5 19.1 9.98 24.15 48.87 17.52 65.31 12.04 3.17-1.06.13-6.17-4.38-7.97-5.3-2.11-2.66-11.67 2.37-14.08 7.31-3.5 7.67-9.61 6.54-15.42-2.01-10.29-11.55-24.49-27.37-20.12z" fill="#271f44"/><path d="m198.23 413.07s8.35 6.34 10.2 8.89c1.85 2.54 7.4 13.64 9.48 16.42 2.08 2.77 5.74 5.55 5.76 11.33s5.11 17.38 2.57 19.79-10.4 7.5-26.13 6.34c-15.73-1.17-1.88-62.77-1.88-62.77z" fill="#e4aeb5"/><path d="m223.67 491.84-7.49-29.49s1.05 1.95 3.74 0 0-2.4-1.35-4.79-5.22-7.78-4.03-10.48c1.19-2.69-.61-7.34-4.05-5.54s-11.98 26.35-11.98 26.35l-7.68 21.88 4.96 8.06z" fill="#fec1c7"/><path d="m195.43 410.53c-4.47-.55-6.63-1.09-8.87-1.09-2.25 0-3.82-5.61-7.64-5.17-3.82.45-4.04 2.76-7.19 2.73s-5.39-3.24-8.53.39c-3.14 3.62-2.02 6.77-5.39 7.44s-9.88 2.92-10.33 6.06-.67 8.76-3.14 10.78-5.39 1.8-4.72 6.06 5.39 6.23 4.04 10.64-2.92 7.11-1.35 9.13 3.82 3.59 3.82 6.96-4.72 6.96 0 10.78 14.82 2.47 15.72 7.41-2.92 5.88 4.27 7.09c7.19 1.22 5.08 4.14 11.07 4.14 6 0 12.28 6.29 20.15 1.12 7.86-5.17 11.59-9.05 12.65-11.18s5.54-5.23 3.52-10.84-1.35-10.1 0-14.59-2.25-5.68-.9-10.02c1.35-4.35 2.92-12.66 1.12-15.8s-7.86-4.27-9.66-9.66c-1.79-5.38.23-11.29-8.64-12.38z" fill="#ea9c36"/><path d="m177.03 508.94 2.97-17.79s26.65-4.83 34.55 1.52v26.7z" fill="url(#K)"/><path d="m163.25 636.71-4.26-38.63 4.26-10.21 68.62-1.73-5.11 59.68z" fill="#a2b8bc"/><path d="m150.16 636.71s-11.14-2.71-10.71-16.85 0-54.82-2.57-64.68c-2.57-9.85-6-22.7 0-30.41s9.85-10.28 20.13-14.13 22.27-6.11 22.27-6.11l37.77 8.41 3.77 132.87z" fill="url(#L)"/><path d="m764.54 541.09c-3.29 10.49-7.05 20.74-11.33 30.67-4.64 10.77-9.88 21.16-15.76 31.03v-21.29c-4.72 1.26-9.68 2.36-14.72 3.33l.88-13.79 1.14-17.73z" fill="url(#M)" opacity=".5"/><path d="m706.45 525.41-2 44.64c-18.31 4.89-48.46 11.45-78.61 11.45-25.45 0-50.36-4.67-68.18-9.07 1.22-3.53 2.32-7.22 3.14-11.04 4.13-19.35 8.42-30.89 13.17-38.01 4.75-7.13 36.66-12.9 36.66-12.9s62.78 4.41 77.04 1.65c14.25-2.76 18.78 13.28 18.78 13.28z" fill="url(#N)"/><path d="m647.07 419.38c-5.61.24-5.61.72-17.92 4.64-12.32 3.92-13.78 7.59-16.02 15.43s-6.33 7.98-5.22 18.06-3.93 15.12-3.93 24.64 8.4 14 0 21.28-10.53 16.87-8.29 26.39 11.08 16.99 28.45 17.85 28-13.44 44.8-8.4 36.4-9.52 28.56-23.52-8.96-16.95-11.2-24.71-16.8-8.32-14-15.6 8.4-13.85 1.68-24.56-7.83-5.9-11.76-16.87c-1.38-3.84-6.71-14.98-15.15-14.63z" fill="#271f44"/><path d="m718.98 565.82v-.26l-7.26-9.68s-42.89 14.87-85.77 14.87c-42.89 0-84.04-14.87-84.04-14.87l-5.84 10.45c12.72 4.11 50.61 15.17 89.78 15.17 40.9-.01 81.8-12.07 93.13-15.68z" fill="#a2b8bc"/><path d="m718.98 565.82v19.7c-5.12.91-10.28 1.68-15.33 2.34-25.26 3.31-47.72 3.76-47.72 3.76l-3.48 23.78-10.64 72.61c-2.6 1.36-5.2 2.7-7.8 4-31.23 15.72-62.38 27.34-97.99 35.13v-160.74l.04-.07c4.46 1.44 12 3.73 21.6 6.1 17.82 4.4 42.73 9.07 68.18 9.07 30.15 0 60.3-6.56 78.61-11.45 6.53-1.75 11.55-3.28 14.53-4.23z" fill="url(#O)"/><path d="m287.27 565.82v-.26l-7.26-9.68s-42.89 14.87-85.77 14.87c-42.89 0-84.04-14.87-84.04-14.87l-5.84 10.45c12.72 4.11 50.61 15.17 89.78 15.17 40.9-.01 81.8-12.07 93.13-15.68z" fill="#a2b8bc"/><path d="m194.13 581.49c-39.17 0-77.06-11.06-89.78-15.17l-.04.07v71.1h182.96v-71.67c-11.33 3.61-52.23 15.67-93.14 15.67z" fill="url(#Q)"/><path d="m98.86 558.57-1.68 73.7-15.76-3.92c-.54-.59-1.07-1.17-1.59-1.76-.79-.87-1.58-1.76-2.37-2.66-18.87-21.63-34.06-46.45-44.85-74.61-1.37-3.57-2.67-7.19-3.9-10.87 29.8 4.59 63.44 13.68 63.44 13.68z" fill="url(#R)"/><path d="m475.96 471.25s-.53 7.59-3.71 12.27h-10.33l-.53-14.13z" fill="#e4aeb5"/><g fill="#fec1c7"><path d="m578.45 579.67 24.65 13.44 5.73 19.22-37.43-3.96z"/><path d="m464.73 486.62 13.69-31.1-57.94 2 2.26 38.67z"/><path d="m484.23 446.93s2.03-3.37 5.08-1.38c3.06 1.99-.53 4.12-1.73 6.91s.53 1.59-1.73 7.57-5.18 7.84-6.11 10.7-2.26 6.31-5.05 5.12-5.45-11.03-5.45-11.03z"/><path d="m408.38 434.57s-1.13-4.74-4.32-2.88-3.29 11.33-2.99 13.69c.31 2.37 1.03 7.72 2.88 10.14s5.46 6.85 8.55 2.73z"/></g><path d="m374.43 387.64s4.17 4.28 3.61 11.21c-.55 6.93-2.19 15.69-1.78 24.66s2.35 38.73-14.88 40.76l-20.18-47.08z" fill="#e4aeb5"/><path d="m366.89 418.53s3.65-3.11 5.47-4.18 2.39-3.82 3.33-4.72c.85-.82 2.36-.64 2.9 1.5.54 2.15-2.54 7.5-2.36 11.47s3.71 11.57 1.81 15.13c-1.89 3.56-6 6.54-9.75 4.29-3.76-2.25-6.97-17.59-1.4-23.49z" fill="#fec1c7"/><path d="m417.32 465.41s-3.79-1.12-7.86-7.72-5.19-19.51-2.25-27.93c2.95-8.42-.84-14.08 2.11-20.59s7.44-25.18 37.76-25.03 29.9 9.12 33.41 13.48c3.51 4.35 7.3 9.83 8.98 16.98 1.68 7.16 1.26 23.02-2.95 31.16s-11.09 13.19-12.07 17.27c-.98 4.07-17.82 25.4-57.13 2.38z" fill="#271f44"/><path d="m358.64 489.76 11.21-82.76-50.14 51.37-4.68 23.23z" fill="#fec1c7"/><circle cx="431.94" cy="446.93" fill="#f8b143" r="8.03"/><path d="m431.94 483.9s32.16-6.72 37.86-4.27c5.7 2.44 2.85 5.09 3.05 9.16s-1.37 9.97.53 10.99c1.91 1.02 5.57 0 6.79 3.66s-14.48 14.24-40.21 11.8-39.36 1.22-42.41-4.48 2.85-6.72 6.31-10.17c3.46-3.46 28.08-16.69 28.08-16.69z" fill="#27872c"/><path d="m556.91 564.82c.29 2.48-5.46 7.2-14.31 12.92-27.47 17.76-110.66 149.14-110.66 149.14l-74.97-27.43 17.04-189.43 29.88-1.74 65.89-3.75 15.71 5.49s18.47-3.19 22.75-2.75c4.27.45 16.55-.98 20.82-1.33 2.89-.24 4.4-.08 5.24.99.4.51.64 1.23.82 2.21.53 3.03 3.91 16.38 6.58 20.12s14.03 25.36 15.21 35.56z" fill="url(#S)"/><path d="m556.91 564.82c.29 2.48-5.46 7.2-14.31 12.92-7.98-16.41-10.18-42.44-10.59-45.33-.43-3-1.29-20.15 1.07-24.23.38-.65.79-1.05 1.22-1.25.4.51.64 1.23.82 2.21.53 3.03 3.91 16.38 6.58 20.12s14.03 25.36 15.21 35.56z" fill="#27872c"/><path d="m298.99 460.26s-5.35-9.3-3.25-13.71c2.09-4.42-3.02-2.09-7.44-14.18s1.16-15.57-3.95-20.68-4.88-27.89 6.04-31.61 9.18-32.77 35.73-29.51c26.55 3.25 31.66 5.35 39.33 16.04s15.34 4.88 11.62 23.24-10.69 32.77-9.06 38.11c1.63 5.35-6.51 13.1-12.32 27s-35.09 24.59-56.7 5.3z" fill="#271f44"/><path d="m580.32 605.88c-17.5 3.32-37.91 5.99-58.32 5.99-16.47 0-33.87-.55-50.1-1.31-.34-.02-.67-.03-1-.05-36.69-1.75-67.19-4.56-67.19-4.56l-7.42 13.28v10.82c155.07 23.45 248.48-22.55 248.48-22.55l-14.51-14.4s-21.01 7.28-49.94 12.78z" fill="#a2b8bc"/><path d="m644.77 607.51-3.15 24.76-7.61 59.74c-47.79 24.06-95.4 38.5-159.08 44.36-26.63 2.45-52.93 3.62-78.64 3.44v-109.76c5.47.83 10.87 1.57 16.19 2.22 54.85 6.81 101.39 4.96 138.07 0 60.52-8.17 94.22-24.76 94.22-24.76z" fill="url(#T)"/><path d="m274.56 476.8s-3.85-.6 0-3.81 11.09-9.32 13.36-12.72c2.26-3.4 2.72-5.89 6.34-5.21s20.83 8.94 27.17 10.81 31.02 7.98 35.77 13.64 19.24 15.85 21.06 21.96c1.81 6.11.91 17.89.91 17.89z" fill="url(#U)"/><path d="m134.76 312.15c1.93 0 1.93-3 0-3s-1.94 3 0 3z" fill="url(#V)"/><path d="m323.2 617.45c1.93 0 1.93-3 0-3s-1.93 3 0 3z" fill="url(#W)"/><path d="m424.65 446.57c.74-1.14 2.32-4.31 6.47-3.72s5.05 2.18 5.73 4.54c.99 3.47 3.36 10.12 11.46 25.6 8.1 15.49-1.58 22.4-1.98 29.12s8.1 11.46 3.16 32.6-10.74 48.4-10.74 48.4l-33.52-27.66s9.48-8.89 7.31-19.36-16.4-27.4-11.46-48.93c4.95-21.53 16.84-30.27 23.57-40.59z" fill="#271f44"/><path d="m584.88 616.76c-1.46 7.08-6.41 14.94-12.8 14.3-6.4-.63-7.97 3.77-12.94 4.04-4.96.27-5.55 10.08-19.98 17.76-14.44 7.69-42.73 25.01-51.72 23.74s-25.29-9.33-30.13-10.2c-4.85-.86-17.79-10.15-37.05-18.89-9.03-4.1-23.97-16.25-23.97-16.25l7.42-25.3s30.5 2.81 67.19 4.56c.63.48.98.75.98.75s-.02-.27.02-.7c.17-1.77 1.29-6.24 8.52-4.9 8.95 1.65 12.74-2.16 22.93-1.53 10.19.62 24.67-3.64 30.63-6.46 5.98-2.83 13.58-10.43 20.34-9.76 6.77.67 18.95.36 23.17 3.81 3.5 2.88 2.3 10.81 2.83 14.16.1.67.28 1.16.57 1.38 1.77 1.3 5.45 2.42 3.99 9.49z" fill="#a2b8bc" opacity=".5"/><path d="m590.16 590.52c-.75 7.18-4.91 15.49-11.33 15.49-6.43 0-7.56 4.53-12.48 5.29-4.91.76-4.53 10.58-18.13 19.65-13.61 9.07-40.06 29.1-49.13 28.72s-26.08-6.8-30.99-7.18-13.98 1.13-34.01-5.67-46.48-19.65-46.48-19.65l-17.13 32.98-3.28 6.32-11.53 65.38-185.35-42.33v-44.59s0-16.63 2.65-28.34c1.81-8.02 3.44-11.98 3.81-16.46v-.01c.17-2.06.06-4.23-.41-6.96-1.51-8.69-3.94-16.63.48-26.83 4.43-10.2 14.26-29.48 15.77-38.55 1.51-9.06 7.18-32.12 20.4-40.43 13.23-8.31 26.08-14.36 34.77-14.36s17.76 4.16 22.67 2.65c4.92-1.52 9.45-2.27 21.17 1.13 11.71 3.4 65.37 21.92 82.38 33.25 17 11.34 71.04 67.65 78.22 71.43 7.18 3.77 24.94 14.73 24.94 14.73s-1.13-7.18 7.94-6.42 12.47-3.4 22.67-3.78 24.19-6.05 29.85-9.45c5.67-3.4 12.48-11.71 19.28-11.71s18.89-1.51 23.43 1.51c4.53 3.02 3.02 13.98 4.91 15.12 1.89 1.13 5.67 1.89 4.91 9.07z" fill="url(#X)"/><path d="m370.48 660.15-3.28 6.32-11.53 65.38-185.35-42.33v-44.59s0-16.63 2.65-28.34c1.81-8.02 3.44-11.98 3.81-16.46 0 0 20.57 20.9 54.95 19.5 34.37-1.41 64.8 6.28 64.8 6.28l45.91 15.97z" fill="#bfcfd3" opacity=".3"/><path d="m356.97 629.07v.4c-17.33 5.52-79.9 23.98-142.48 23.98-52.79 0-104.05-13.13-128.81-20.56-3.35-1-6.21-1.9-8.53-2.65l2.29-4.09 6.64-11.9s62.96 22.75 128.57 22.75 131.21-22.75 131.21-22.75z" fill="#a2b8bc"/><path d="m356.97 629.47v109.01c-111.43-6.92-208.98-40.69-271.29-105.59 24.76 7.43 76.02 20.56 128.81 20.56 62.58 0 125.15-18.46 142.48-23.98z" fill="url(#Y)"/><path d="m737.45 581.5v21.29c-.17.29-.35.58-.52.87-2.25 3.74-4.59 7.41-7.03 10.99-.34.49-.67.98-1.01 1.47-.39.56-.78 1.13-1.18 1.68-.64.92-1.3 1.84-1.97 2.75-.68.94-1.37 1.87-2.07 2.8-.63.84-1.26 1.67-1.9 2.49-1.69 2.18-3.43 4.32-5.2 6.43-13.45 15.97-29.25 29.77-47.67 40.62-4.43 2.61-8.82 5.13-13.19 7.58-4.65 2.6-9.28 5.12-13.9 7.54l14.12-96.39s32.35-.65 63.05-6.1c1.25-.22 2.51-.46 3.75-.69 5.04-.97 10-2.07 14.72-3.33z" fill="url(#Z)"/><path d="m738.48 593.11v7.93c-.51.88-1.03 1.76-1.55 2.62-2.25 3.74-4.59 7.41-7.03 10.99-.34.49-.67.98-1.01 1.47-.39.56-.78 1.13-1.18 1.68-.64.92-1.3 1.84-1.97 2.75-.68.94-1.37 1.87-2.07 2.8-.63.84-1.26 1.67-1.9 2.49-1.69 2.18-3.43 4.32-5.2 6.43-13.45 15.97-29.25 29.77-47.67 40.62-4.43 2.61-8.82 5.13-13.19 7.58l7.06-48.2 4.37-29.84s39.63-.88 71.34-9.32z" fill="url(#aa)"/><path d="m593.78 295.3c1.93 0 1.93-3 0-3s-1.93 3 0 3z" fill="url(#ab)"/><circle cx="342.66" cy="174.23" fill="url(#ac)" r="109.69"/><circle cx="342.66" cy="174.23" fill="#38b649" r="94.79"/><path d="m406.54 163.72c1.93.14 3.59-1.37 3.59-3.31v-24.44c0-1.83-1.49-3.32-3.32-3.32h-128.3c-1.83 0-3.32 1.49-3.32 3.32v24.44c0 1.94 1.65 3.45 3.59 3.31 6.18-.46 11.35 4.44 11.35 10.52s-5.17 10.97-11.35 10.52c-1.93-.14-3.59 1.37-3.59 3.31v24.44c0 1.83 1.49 3.32 3.32 3.32h34.72 93.59c1.83 0 3.32-1.49 3.32-3.32v-24.44c0-1.94-1.65-3.45-3.59-3.31-6.18.46-11.35-4.44-11.35-10.52s5.17-10.98 11.34-10.52zm-64.17 38.1c-6.29.13-12.62-1.83-17.77-5.93-3.03-2.41-5.4-5.29-7.12-8.43-5.72-10.44-4.23-23.8 4.48-32.7l-5.28-5.28c-.29-.29-.08-.81.35-.88l18.83-2.88c.31-.05.58.22.53.53l-2.88 18.82c-.07.43-.59.64-.88.35l-5.27-5.27c-5.71 5.88-7.07 14.4-4.15 21.57 1.1 2.7 2.78 5.22 5.11 7.32 4.23 3.83 9.8 5.5 15.22 5.03zm26.27-2.84c.28.29.08.81-.35.88l-18.83 2.88c-.31.05-.58-.22-.53-.53l2.88-18.82c.07-.43.59-.64.88-.35l5.27 5.27c5.71-5.88 7.07-14.4 4.15-21.57-1.1-2.7-2.78-5.22-5.11-7.32-4.23-3.83-9.81-5.5-15.22-5.03l1.18-7.74c6.29-.13 12.62 1.83 17.77 5.93 3.03 2.41 5.4 5.29 7.12 8.43 5.72 10.44 4.23 23.8-4.48 32.7z" fill="url(#ad)"/></svg>